<svg width="1769" height="1595" xmlns="http://www.w3.org/2000/svg" xmlns:xlink="http://www.w3.org/1999/xlink" xml:space="preserve" overflow="hidden"><defs><linearGradient x1="1088.5" y1="1506" x2="1088.5" y2="1770" gradientUnits="userSpaceOnUse" spreadMethod="reflect" id="fill0"><stop offset="0" stop-color="#9CE1FF" stop-opacity="1"/><stop offset="0.5" stop-color="#8EDCFF" stop-opacity="1"/><stop offset="1" stop-color="#79DBFF" stop-opacity="1"/></linearGradient><linearGradient x1="1143.5" y1="1561" x2="1143.5" y2="1825" gradientUnits="userSpaceOnUse" spreadMethod="reflect" id="fill1"><stop offset="0" stop-color="#9CE1FF" stop-opacity="1"/><stop offset="0.5" stop-color="#8EDCFF" stop-opacity="1"/><stop offset="1" stop-color="#79DBFF" stop-opacity="1"/></linearGradient><linearGradient x1="1198.5" y1="1616" x2="1198.5" y2="1880" gradientUnits="userSpaceOnUse" spreadMethod="reflect" id="fill2"><stop offset="0" stop-color="#9CE1FF" stop-opacity="1"/><stop offset="0.5" stop-color="#8EDCFF" stop-opacity="1"/><stop offset="1" stop-color="#79DBFF" stop-opacity="1"/></linearGradient><linearGradient x1="1253.5" y1="1671" x2="1253.5" y2="1935" gradientUnits="userSpaceOnUse" spreadMethod="reflect" id="fill3"><stop offset="0" stop-color="#9CE1FF" stop-opacity="1"/><stop offset="0.5" stop-color="#8EDCFF" stop-opacity="1"/><stop offset="1" stop-color="#79DBFF" stop-opacity="1"/></linearGradient><linearGradient x1="1308.5" y1="1726" x2="1308.5" y2="1990" gradientUnits="userSpaceOnUse" spreadMethod="reflect" id="fill4"><stop offset="0" stop-color="#9CE1FF" stop-opacity="1"/><stop offset="0.5" stop-color="#8EDCFF" stop-opacity="1"/><stop offset="1" stop-color="#79DBFF" stop-opacity="1"/></linearGradient><linearGradient x1="1718.5" y1="1506" x2="1718.5" y2="1770" gradientUnits="userSpaceOnUse" spreadMethod="reflect" id="fill5"><stop offset="0" stop-color="#9CE1FF" stop-opacity="1"/><stop offset="0.5" stop-color="#8EDCFF" stop-opacity="1"/><stop offset="1" stop-color="#79DBFF" stop-opacity="1"/></linearGradient><linearGradient x1="1773.5" y1="1561" x2="1773.5" y2="1825" gradientUnits="userSpaceOnUse" spreadMethod="reflect" id="fill6"><stop offset="0" stop-color="#9CE1FF" stop-opacity="1"/><stop offset="0.5" stop-color="#8EDCFF" stop-opacity="1"/><stop offset="1" stop-color="#79DBFF" stop-opacity="1"/></linearGradient><linearGradient x1="1828.5" y1="1616" x2="1828.5" y2="1880" gradientUnits="userSpaceOnUse" spreadMethod="reflect" id="fill7"><stop offset="0" stop-color="#9CE1FF" stop-opacity="1"/><stop offset="0.5" stop-color="#8EDCFF" stop-opacity="1"/><stop offset="1" stop-color="#79DBFF" stop-opacity="1"/></linearGradient><linearGradient x1="1883.5" y1="1671" x2="1883.5" y2="1935" gradientUnits="userSpaceOnUse" spreadMethod="reflect" id="fill8"><stop offset="0" stop-color="#9CE1FF" stop-opacity="1"/><stop offset="0.5" stop-color="#8EDCFF" stop-opacity="1"/><stop offset="1" stop-color="#79DBFF" stop-opacity="1"/></linearGradient><linearGradient x1="1938.5" y1="1726" x2="1938.5" y2="1990" gradientUnits="userSpaceOnUse" spreadMethod="reflect" id="fill9"><stop offset="0" stop-color="#9CE1FF" stop-opacity="1"/><stop offset="0.5" stop-color="#8EDCFF" stop-opacity="1"/><stop offset="1" stop-color="#79DBFF" stop-opacity="1"/></linearGradient><linearGradient x1="2282.5" y1="1506" x2="2282.5" y2="1770" gradientUnits="userSpaceOnUse" spreadMethod="reflect" id="fill10"><stop offset="0" stop-color="#9CE1FF" stop-opacity="1"/><stop offset="0.5" stop-color="#8EDCFF" stop-opacity="1"/><stop offset="1" stop-color="#79DBFF" stop-opacity="1"/></linearGradient><linearGradient x1="2337.5" y1="1561" x2="2337.5" y2="1825" gradientUnits="userSpaceOnUse" spreadMethod="reflect" id="fill11"><stop offset="0" stop-color="#9CE1FF" stop-opacity="1"/><stop offset="0.5" stop-color="#8EDCFF" stop-opacity="1"/><stop offset="1" stop-color="#79DBFF" stop-opacity="1"/></linearGradient><linearGradient x1="2392.5" y1="1616" x2="2392.5" y2="1880" gradientUnits="userSpaceOnUse" spreadMethod="reflect" id="fill12"><stop offset="0" stop-color="#9CE1FF" stop-opacity="1"/><stop offset="0.5" stop-color="#8EDCFF" stop-opacity="1"/><stop offset="1" stop-color="#79DBFF" stop-opacity="1"/></linearGradient><linearGradient x1="2447.5" y1="1671" x2="2447.5" y2="1935" gradientUnits="userSpaceOnUse" spreadMethod="reflect" id="fill13"><stop offset="0" stop-color="#9CE1FF" stop-opacity="1"/><stop offset="0.5" stop-color="#8EDCFF" stop-opacity="1"/><stop offset="1" stop-color="#79DBFF" stop-opacity="1"/></linearGradient><linearGradient x1="2502.5" y1="1726" x2="2502.5" y2="1990" gradientUnits="userSpaceOnUse" spreadMethod="reflect" id="fill14"><stop offset="0" stop-color="#9CE1FF" stop-opacity="1"/><stop offset="0.5" stop-color="#8EDCFF" stop-opacity="1"/><stop offset="1" stop-color="#79DBFF" stop-opacity="1"/></linearGradient></defs><g transform="translate(-898 -398)"><g><path d="M900 440.122C900 418.516 917.515 401 939.122 401L2448.88 401C2470.48 401 2488 418.516 2488 440.122L2488 767.878C2488 789.485 2470.48 807 2448.88 807L939.122 807C917.515 807 900 789.485 900 767.878Z" fill="#0068B5" fill-rule="evenodd" fill-opacity="1"/><text fill="#FFFFFF" fill-opacity="1" font-family="IntelOne Display Regular,IntelOne Display Regular_MSFontService,sans-serif" font-style="normal" font-variant="normal" font-weight="400" font-stretch="normal" font-size="83" text-anchor="start" direction="ltr" writing-mode="lr-tb" unicode-bidi="normal" text-decoration="none" transform="matrix(1 0 0 1 1372.57 505)">EMF </text><text fill="#FFFFFF" fill-opacity="1" font-family="IntelOne Display Regular,IntelOne Display Regular_MSFontService,sans-serif" font-style="normal" font-variant="normal" font-weight="400" font-stretch="normal" font-size="83" text-anchor="start" direction="ltr" writing-mode="lr-tb" unicode-bidi="normal" text-decoration="none" transform="matrix(1 0 0 1 1557.62 505)">Orchestrator</text><path d="M938 1550C938 1525.7 957.7 1506 982.001 1506L1195 1506C1219.3 1506 1239 1525.7 1239 1550L1239 1726C1239 1750.3 1219.3 1770 1195 1770L982.001 1770C957.7 1770 938 1750.3 938 1726Z" stroke="#00C7FD" stroke-width="2.29167" stroke-linecap="butt" stroke-linejoin="miter" stroke-miterlimit="8" stroke-opacity="1" fill="url(#fill0)" fill-rule="evenodd"/><text fill="#000000" fill-opacity="1" font-family="IntelOne Display Regular,IntelOne Display Regular_MSFontService,sans-serif" font-style="normal" font-variant="normal" font-weight="400" font-stretch="normal" font-size="50" text-anchor="start" direction="ltr" writing-mode="lr-tb" unicode-bidi="normal" text-decoration="none" transform="matrix(1 0 0 1 968.281 1582)">Edge node </text><path d="M993 1605C993 1580.7 1012.7 1561 1037 1561L1250 1561C1274.3 1561 1294 1580.7 1294 1605L1294 1781C1294 1805.3 1274.3 1825 1250 1825L1037 1825C1012.7 1825 993 1805.3 993 1781Z" stroke="#00C7FD" stroke-width="2.29167" stroke-linecap="butt" stroke-linejoin="miter" stroke-miterlimit="8" stroke-opacity="1" fill="url(#fill1)" fill-rule="evenodd"/><text fill="#000000" fill-opacity="1" font-family="IntelOne Display Regular,IntelOne Display Regular_MSFontService,sans-serif" font-style="normal" font-variant="normal" font-weight="400" font-stretch="normal" font-size="50" text-anchor="start" direction="ltr" writing-mode="lr-tb" unicode-bidi="normal" text-decoration="none" transform="matrix(1 0 0 1 1023.28 1637)">Edge node </text><path d="M1048 1660C1048 1635.7 1067.7 1616 1092 1616L1305 1616C1329.3 1616 1349 1635.7 1349 1660L1349 1836C1349 1860.3 1329.3 1880 1305 1880L1092 1880C1067.7 1880 1048 1860.3 1048 1836Z" stroke="#00C7FD" stroke-width="2.29167" stroke-linecap="butt" stroke-linejoin="miter" stroke-miterlimit="8" stroke-opacity="1" fill="url(#fill2)" fill-rule="evenodd"/><text fill="#000000" fill-opacity="1" font-family="IntelOne Display Regular,IntelOne Display Regular_MSFontService,sans-serif" font-style="normal" font-variant="normal" font-weight="400" font-stretch="normal" font-size="50" text-anchor="start" direction="ltr" writing-mode="lr-tb" unicode-bidi="normal" text-decoration="none" transform="matrix(1 0 0 1 1078.28 1692)">Edge node </text><path d="M1103 1715C1103 1690.7 1122.7 1671 1147 1671L1360 1671C1384.3 1671 1404 1690.7 1404 1715L1404 1891C1404 1915.3 1384.3 1935 1360 1935L1147 1935C1122.7 1935 1103 1915.3 1103 1891Z" stroke="#00C7FD" stroke-width="2.29167" stroke-linecap="butt" stroke-linejoin="miter" stroke-miterlimit="8" stroke-opacity="1" fill="url(#fill3)" fill-rule="evenodd"/><text fill="#000000" fill-opacity="1" font-family="IntelOne Display Regular,IntelOne Display Regular_MSFontService,sans-serif" font-style="normal" font-variant="normal" font-weight="400" font-stretch="normal" font-size="50" text-anchor="start" direction="ltr" writing-mode="lr-tb" unicode-bidi="normal" text-decoration="none" transform="matrix(1 0 0 1 1133.28 1747)">Edge node </text><path d="M1158 1770C1158 1745.7 1177.7 1726 1202 1726L1415 1726C1439.3 1726 1459 1745.7 1459 1770L1459 1946C1459 1970.3 1439.3 1990 1415 1990L1202 1990C1177.7 1990 1158 1970.3 1158 1946Z" stroke="#00C7FD" stroke-width="2.29167" stroke-linecap="butt" stroke-linejoin="miter" stroke-miterlimit="8" stroke-opacity="1" fill="url(#fill4)" fill-rule="evenodd"/><text fill="#000000" fill-opacity="1" font-family="IntelOne Display Regular,IntelOne Display Regular_MSFontService,sans-serif" font-style="normal" font-variant="normal" font-weight="400" font-stretch="normal" font-size="50" text-anchor="start" direction="ltr" writing-mode="lr-tb" unicode-bidi="normal" text-decoration="none" transform="matrix(1 0 0 1 1188.28 1802)">Edge node </text><path d="M1568 1550C1568 1525.7 1587.7 1506 1612 1506L1825 1506C1849.3 1506 1869 1525.7 1869 1550L1869 1726C1869 1750.3 1849.3 1770 1825 1770L1612 1770C1587.7 1770 1568 1750.3 1568 1726Z" stroke="#00C7FD" stroke-width="2.29167" stroke-linecap="butt" stroke-linejoin="miter" stroke-miterlimit="8" stroke-opacity="1" fill="url(#fill5)" fill-rule="evenodd"/><text fill="#000000" fill-opacity="1" font-family="IntelOne Display Regular,IntelOne Display Regular_MSFontService,sans-serif" font-style="normal" font-variant="normal" font-weight="400" font-stretch="normal" font-size="50" text-anchor="start" direction="ltr" writing-mode="lr-tb" unicode-bidi="normal" text-decoration="none" transform="matrix(1 0 0 1 1598.41 1582)">Edge node </text><path d="M1623 1605C1623 1580.7 1642.7 1561 1667 1561L1880 1561C1904.3 1561 1924 1580.7 1924 1605L1924 1781C1924 1805.3 1904.3 1825 1880 1825L1667 1825C1642.7 1825 1623 1805.3 1623 1781Z" stroke="#00C7FD" stroke-width="2.29167" stroke-linecap="butt" stroke-linejoin="miter" stroke-miterlimit="8" stroke-opacity="1" fill="url(#fill6)" fill-rule="evenodd"/><text fill="#000000" fill-opacity="1" font-family="IntelOne Display Regular,IntelOne Display Regular_MSFontService,sans-serif" font-style="normal" font-variant="normal" font-weight="400" font-stretch="normal" font-size="50" text-anchor="start" direction="ltr" writing-mode="lr-tb" unicode-bidi="normal" text-decoration="none" transform="matrix(1 0 0 1 1653.41 1637)">Edge node </text><path d="M1678 1660C1678 1635.7 1697.7 1616 1722 1616L1935 1616C1959.3 1616 1979 1635.7 1979 1660L1979 1836C1979 1860.3 1959.3 1880 1935 1880L1722 1880C1697.7 1880 1678 1860.3 1678 1836Z" stroke="#00C7FD" stroke-width="2.29167" stroke-linecap="butt" stroke-linejoin="miter" stroke-miterlimit="8" stroke-opacity="1" fill="url(#fill7)" fill-rule="evenodd"/><text fill="#000000" fill-opacity="1" font-family="IntelOne Display Regular,IntelOne Display Regular_MSFontService,sans-serif" font-style="normal" font-variant="normal" font-weight="400" font-stretch="normal" font-size="50" text-anchor="start" direction="ltr" writing-mode="lr-tb" unicode-bidi="normal" text-decoration="none" transform="matrix(1 0 0 1 1708.41 1692)">Edge node </text><path d="M1733 1715C1733 1690.7 1752.7 1671 1777 1671L1990 1671C2014.3 1671 2034 1690.7 2034 1715L2034 1891C2034 1915.3 2014.3 1935 1990 1935L1777 1935C1752.7 1935 1733 1915.3 1733 1891Z" stroke="#00C7FD" stroke-width="2.29167" stroke-linecap="butt" stroke-linejoin="miter" stroke-miterlimit="8" stroke-opacity="1" fill="url(#fill8)" fill-rule="evenodd"/><text fill="#000000" fill-opacity="1" font-family="IntelOne Display Regular,IntelOne Display Regular_MSFontService,sans-serif" font-style="normal" font-variant="normal" font-weight="400" font-stretch="normal" font-size="50" text-anchor="start" direction="ltr" writing-mode="lr-tb" unicode-bidi="normal" text-decoration="none" transform="matrix(1 0 0 1 1763.41 1747)">Edge node </text><path d="M1788 1770C1788 1745.7 1807.7 1726 1832 1726L2045 1726C2069.3 1726 2089 1745.7 2089 1770L2089 1946C2089 1970.3 2069.3 1990 2045 1990L1832 1990C1807.7 1990 1788 1970.3 1788 1946Z" stroke="#00C7FD" stroke-width="2.29167" stroke-linecap="butt" stroke-linejoin="miter" stroke-miterlimit="8" stroke-opacity="1" fill="url(#fill9)" fill-rule="evenodd"/><text fill="#000000" fill-opacity="1" font-family="IntelOne Display Regular,IntelOne Display Regular_MSFontService,sans-serif" font-style="normal" font-variant="normal" font-weight="400" font-stretch="normal" font-size="50" text-anchor="start" direction="ltr" writing-mode="lr-tb" unicode-bidi="normal" text-decoration="none" transform="matrix(1 0 0 1 1818.41 1802)">Edge node </text><path d="M2132 1550C2132 1525.7 2151.7 1506 2176 1506L2389 1506C2413.3 1506 2433 1525.7 2433 1550L2433 1726C2433 1750.3 2413.3 1770 2389 1770L2176 1770C2151.7 1770 2132 1750.3 2132 1726Z" stroke="#00C7FD" stroke-width="2.29167" stroke-linecap="butt" stroke-linejoin="miter" stroke-miterlimit="8" stroke-opacity="1" fill="url(#fill10)" fill-rule="evenodd"/><text fill="#000000" fill-opacity="1" font-family="IntelOne Display Regular,IntelOne Display Regular_MSFontService,sans-serif" font-style="normal" font-variant="normal" font-weight="400" font-stretch="normal" font-size="50" text-anchor="start" direction="ltr" writing-mode="lr-tb" unicode-bidi="normal" text-decoration="none" transform="matrix(1 0 0 1 2162.8 1582)">Edge node </text><path d="M2187 1605C2187 1580.7 2206.7 1561 2231 1561L2444 1561C2468.3 1561 2488 1580.7 2488 1605L2488 1781C2488 1805.3 2468.3 1825 2444 1825L2231 1825C2206.7 1825 2187 1805.3 2187 1781Z" stroke="#00C7FD" stroke-width="2.29167" stroke-linecap="butt" stroke-linejoin="miter" stroke-miterlimit="8" stroke-opacity="1" fill="url(#fill11)" fill-rule="evenodd"/><text fill="#000000" fill-opacity="1" font-family="IntelOne Display Regular,IntelOne Display Regular_MSFontService,sans-serif" font-style="normal" font-variant="normal" font-weight="400" font-stretch="normal" font-size="50" text-anchor="start" direction="ltr" writing-mode="lr-tb" unicode-bidi="normal" text-decoration="none" transform="matrix(1 0 0 1 2217.8 1637)">Edge node </text><path d="M2242 1660C2242 1635.7 2261.7 1616 2286 1616L2499 1616C2523.3 1616 2543 1635.7 2543 1660L2543 1836C2543 1860.3 2523.3 1880 2499 1880L2286 1880C2261.7 1880 2242 1860.3 2242 1836Z" stroke="#00C7FD" stroke-width="2.29167" stroke-linecap="butt" stroke-linejoin="miter" stroke-miterlimit="8" stroke-opacity="1" fill="url(#fill12)" fill-rule="evenodd"/><text fill="#000000" fill-opacity="1" font-family="IntelOne Display Regular,IntelOne Display Regular_MSFontService,sans-serif" font-style="normal" font-variant="normal" font-weight="400" font-stretch="normal" font-size="50" text-anchor="start" direction="ltr" writing-mode="lr-tb" unicode-bidi="normal" text-decoration="none" transform="matrix(1 0 0 1 2272.8 1692)">Edge node </text><path d="M2297 1715C2297 1690.7 2316.7 1671 2341 1671L2554 1671C2578.3 1671 2598 1690.7 2598 1715L2598 1891C2598 1915.3 2578.3 1935 2554 1935L2341 1935C2316.7 1935 2297 1915.3 2297 1891Z" stroke="#00C7FD" stroke-width="2.29167" stroke-linecap="butt" stroke-linejoin="miter" stroke-miterlimit="8" stroke-opacity="1" fill="url(#fill13)" fill-rule="evenodd"/><text fill="#000000" fill-opacity="1" font-family="IntelOne Display Regular,IntelOne Display Regular_MSFontService,sans-serif" font-style="normal" font-variant="normal" font-weight="400" font-stretch="normal" font-size="50" text-anchor="start" direction="ltr" writing-mode="lr-tb" unicode-bidi="normal" text-decoration="none" transform="matrix(1 0 0 1 2327.8 1747)">Edge node </text><path d="M2352 1770C2352 1745.7 2371.7 1726 2396 1726L2609 1726C2633.3 1726 2653 1745.7 2653 1770L2653 1946C2653 1970.3 2633.3 1990 2609 1990L2396 1990C2371.7 1990 2352 1970.3 2352 1946Z" stroke="#00C7FD" stroke-width="2.29167" stroke-linecap="butt" stroke-linejoin="miter" stroke-miterlimit="8" stroke-opacity="1" fill="url(#fill14)" fill-rule="evenodd"/><text fill="#000000" fill-opacity="1" font-family="IntelOne Display Regular,IntelOne Display Regular_MSFontService,sans-serif" font-style="normal" font-variant="normal" font-weight="400" font-stretch="normal" font-size="50" text-anchor="start" direction="ltr" writing-mode="lr-tb" unicode-bidi="normal" text-decoration="none" transform="matrix(1 0 0 1 2382.8 1802)">Edge node </text><path d="M3.43751 22.9169 3.43785 613.367-3.43715 613.367-3.43749 22.9169ZM-13.75 27.5 0 0 13.75 27.5ZM13.7503 608.783 0.000360892 636.283-13.7497 608.783Z" fill="#000000" fill-rule="nonzero" fill-opacity="1" transform="matrix(1 0 0 -1 1103.5 1463.78)"/><path d="M3.43751 22.9169 3.43785 613.367-3.43715 613.367-3.43749 22.9169ZM-13.75 27.5 0 0 13.75 27.5ZM13.7503 608.783 0.000360892 636.283-13.7497 608.783Z" fill="#000000" fill-rule="nonzero" fill-opacity="1" transform="matrix(1 0 0 -1 1718.5 1463.78)"/><path d="M3.43751 22.9169 3.43785 613.367-3.43715 613.367-3.43749 22.9169ZM-13.75 27.5 0 0 13.75 27.5ZM13.7503 608.783 0.000360892 636.283-13.7497 608.783Z" fill="#000000" fill-rule="nonzero" fill-opacity="1" transform="matrix(1 0 0 -1 2283.5 1463.78)"/><path d="M2036.5 692.667C2036.5 683.186 2044.19 675.5 2053.67 675.5L2431.33 675.5C2440.81 675.5 2448.5 683.186 2448.5 692.667L2448.5 761.333C2448.5 770.814 2440.81 778.5 2431.33 778.5L2053.67 778.5C2044.19 778.5 2036.5 770.814 2036.5 761.333Z" stroke="#0068B5" stroke-width="4.58333" stroke-linecap="butt" stroke-linejoin="miter" stroke-miterlimit="8" stroke-opacity="1" fill="#FFFFFF" fill-rule="evenodd" fill-opacity="1"/><text fill="#000000" fill-opacity="1" font-family="IntelOne Display Regular,IntelOne Display Regular_MSFontService,sans-serif" font-style="normal" font-variant="normal" font-weight="400" font-stretch="normal" font-size="48" text-anchor="start" direction="ltr" writing-mode="lr-tb" unicode-bidi="normal" text-decoration="none" transform="matrix(1 0 0 1 2065.69 743)">Firmware update</text><path d="M2036.5 559.5C2036.5 550.111 2044.11 542.5 2053.5 542.5L2431.5 542.5C2440.89 542.5 2448.5 550.111 2448.5 559.5L2448.5 627.5C2448.5 636.889 2440.89 644.5 2431.5 644.5L2053.5 644.5C2044.11 644.5 2036.5 636.889 2036.5 627.5Z" stroke="#0068B5" stroke-width="4.58333" stroke-linecap="butt" stroke-linejoin="miter" stroke-miterlimit="8" stroke-opacity="1" fill="#FFFFFF" fill-rule="evenodd" fill-opacity="1"/><text fill="#000000" fill-opacity="1" font-family="IntelOne Display Regular,IntelOne Display Regular_MSFontService,sans-serif" font-style="normal" font-variant="normal" font-weight="400" font-stretch="normal" font-size="48" text-anchor="start" direction="ltr" writing-mode="lr-tb" unicode-bidi="normal" text-decoration="none" transform="matrix(1 0 0 1 2072.56 609)">Remote console</text><path d="M1512.5 626C1512.5 609.708 1525.71 596.5 1542 596.5L1895 596.5C1911.29 596.5 1924.5 609.708 1924.5 626L1924.5 743.999C1924.5 760.292 1911.29 773.5 1895 773.5L1542 773.5C1525.71 773.5 1512.5 760.292 1512.5 743.999Z" stroke="#0068B5" stroke-width="4.58333" stroke-linecap="butt" stroke-linejoin="miter" stroke-miterlimit="8" stroke-opacity="1" fill="#FFFFFF" fill-rule="evenodd" fill-opacity="1"/><text fill="#000000" fill-opacity="1" font-family="IntelOne Display Regular,IntelOne Display Regular_MSFontService,sans-serif" font-style="normal" font-variant="normal" font-weight="400" font-stretch="normal" font-size="48" text-anchor="start" direction="ltr" writing-mode="lr-tb" unicode-bidi="normal" text-decoration="none" transform="matrix(1 0 0 1 1560.3 672)">Remote device </text><text fill="#000000" fill-opacity="1" font-family="IntelOne Display Regular,IntelOne Display Regular_MSFontService,sans-serif" font-style="normal" font-variant="normal" font-weight="400" font-stretch="normal" font-size="48" text-anchor="start" direction="ltr" writing-mode="lr-tb" unicode-bidi="normal" text-decoration="none" transform="matrix(1 0 0 1 1668.3 729)">wipe</text><path d="M952.5 633.001C952.5 616.708 965.708 603.5 982.001 603.5L1335 603.5C1351.29 603.5 1364.5 616.708 1364.5 633.001L1364.5 750.999C1364.5 767.292 1351.29 780.5 1335 780.5L982.001 780.5C965.708 780.5 952.5 767.292 952.5 750.999Z" stroke="#0068B5" stroke-width="4.58333" stroke-linecap="butt" stroke-linejoin="miter" stroke-miterlimit="8" stroke-opacity="1" fill="#FFFFFF" fill-rule="evenodd" fill-opacity="1"/><text fill="#000000" fill-opacity="1" font-family="IntelOne Display Regular,IntelOne Display Regular_MSFontService,sans-serif" font-style="normal" font-variant="normal" font-weight="400" font-stretch="normal" font-size="48" text-anchor="start" direction="ltr" writing-mode="lr-tb" unicode-bidi="normal" text-decoration="none" transform="matrix(1 0 0 1 1013.54 679)">Device power </text><text fill="#000000" fill-opacity="1" font-family="IntelOne Display Regular,IntelOne Display Regular_MSFontService,sans-serif" font-style="normal" font-variant="normal" font-weight="400" font-stretch="normal" font-size="48" text-anchor="start" direction="ltr" writing-mode="lr-tb" unicode-bidi="normal" text-decoration="none" transform="matrix(1 0 0 1 1019.27 736)">management</text></g></g></svg>