<svg width="3029" height="1476" xmlns="http://www.w3.org/2000/svg" xmlns:xlink="http://www.w3.org/1999/xlink" xml:space="preserve" overflow="hidden"><g transform="translate(-756 -288)"><g><path d="M2393.5 618.604C2393.5 606.396 2403.4 596.5 2415.6 596.5L3757.4 596.5C3769.6 596.5 3779.5 606.396 3779.5 618.604L3779.5 881.396C3779.5 893.603 3769.6 903.5 3757.4 903.5L2415.6 903.5C2403.4 903.5 2393.5 893.603 2393.5 881.396Z" stroke="#B4DDFF" stroke-width="4.58333" stroke-linecap="butt" stroke-linejoin="miter" stroke-miterlimit="8" stroke-dasharray="36.6667 13.75" stroke-opacity="1" fill="#F2F2F2" fill-rule="evenodd" fill-opacity="0.501961"/><text fill="#000000" fill-opacity="1" font-family="IntelOne Display Regular,IntelOne Display Regular_MSFontService,sans-serif" font-style="normal" font-variant="normal" font-weight="400" font-stretch="normal" font-size="48" text-anchor="start" direction="ltr" writing-mode="lr-tb" unicode-bidi="normal" text-decoration="none" transform="matrix(1 0 0 1 2869.18 664)">Device management</text><path d="M2463.33 1627.93 2453.02 1627.6 2453.13 1624.16 2463.44 1624.49ZM2449.48 1627.39 2439.22 1626.4 2439.54 1622.98 2449.81 1623.96ZM2435.71 1625.88 2426.39 1624.41 2425.44 1624.21 2426.17 1620.85 2426.92 1621.02 2436.25 1622.49ZM2422.08 1623.47 2414.16 1621.74 2411.94 1621.12 2412.86 1617.81 2414.89 1618.38 2422.81 1620.11ZM2408.63 1620.2 2402.03 1618.36 2398.66 1617.22 2399.76 1613.97 2402.95 1615.05 2409.55 1616.89ZM2395.4 1616.12 2390.02 1614.3 2385.64 1612.56 2386.91 1609.36 2391.12 1611.04 2396.51 1612.87ZM2382.44 1611.29 2378.17 1609.59 2372.89 1607.17 2374.32 1604.05 2379.44 1606.39 2383.71 1608.09ZM2369.77 1605.74 2366.48 1604.24 2360.46 1601.12 2362.04 1598.07 2367.92 1601.11 2371.2 1602.62ZM2357.41 1599.54 2355 1598.29 2348.35 1594.44 2350.08 1591.47 2356.58 1595.24 2358.99 1596.49ZM2345.38 1592.72 2343.73 1591.76 2336.59 1587.17 2338.45 1584.28 2345.46 1588.79 2347.1 1589.74ZM2333.7 1585.32 2332.71 1584.68 2325.19 1579.36 2327.17 1576.55 2334.57 1581.79 2335.56 1582.42ZM2322.38 1577.37 2321.95 1577.07 2314.16 1571.03 2316.27 1568.31 2323.94 1574.26 2324.37 1574.57ZM2311.39 1568.87 2303.52 1562.21 2305.74 1559.58 2313.61 1566.25ZM2300.85 1559.92 2293.27 1552.93 2295.6 1550.4 2303.19 1557.39ZM2290.73 1550.52 2283.44 1543.21 2285.88 1540.79 2293.16 1548.09ZM2281.01 1540.68 2274.04 1533.09 2276.57 1530.76 2283.55 1538.36ZM2271.73 1530.45 2265.08 1522.56 2267.71 1520.35 2274.36 1528.23ZM2262.89 1519.82 2256.58 1511.67 2259.3 1509.56 2265.61 1517.71ZM2254.52 1508.82 2248.55 1500.41 2251.36 1498.42 2257.33 1506.83ZM2246.64 1497.47 2241.11 1488.94 2241 1488.75 2243.96 1487.01 2243.99 1487.07 2249.52 1495.61ZM2239.25 1485.79 2234.33 1477.42 2234.01 1476.82 2237.05 1475.21 2237.3 1475.68 2242.22 1484.05ZM2232.4 1473.78 2228.09 1465.65 2227.58 1464.58 2230.69 1463.11 2231.12 1464.04 2235.44 1472.17ZM2226.11 1461.48 2222.4 1453.65 2221.73 1452.05 2224.9 1450.73 2225.5 1452.18 2229.21 1460ZM2220.4 1448.88 2217.29 1441.45 2216.49 1439.26 2219.72 1438.08 2220.46 1440.12 2223.57 1447.55ZM2215.31 1436.03 2212.78 1429.06 2211.89 1426.21 2215.17 1425.19 2216.01 1427.89 2218.54 1434.85ZM2210.87 1422.93 2208.89 1416.53 2207.97 1412.94 2211.31 1412.09 2212.18 1415.51 2214.16 1421.91ZM2207.13 1409.61 2205.66 1403.86 2204.78 1399.48 2208.15 1398.81 2208.99 1403.01 2210.46 1408.76ZM2204.1 1396.11 2203.1 1391.09 2202.34 1385.86 2205.74 1385.37 2206.47 1390.42 2207.48 1395.44ZM2201.85 1382.46 2201.24 1378.24 2200.7 1372.12 2204.13 1371.82 2204.64 1377.75 2205.25 1381.97ZM2200.4 1368.69 2200.11 1365.34 2199.9 1358.3 2203.33 1358.19 2203.53 1365.04 2203.83 1368.39ZM2199.79 1354.86 2199.72 1352.41 2199.49 1344.55 2202.93 1344.45 2203.16 1352.3 2203.23 1354.76ZM2199.39 1341.12 2199.34 1339.57 2198.58 1330.94 2202.01 1330.64 2202.78 1339.47 2202.82 1341.01ZM2198.28 1327.51 2198.23 1326.87 2196.85 1317.4 2200.26 1316.91 2201.65 1326.57 2201.71 1327.21ZM2196.37 1314.09 2194.34 1303.98 2197.72 1303.3 2199.74 1313.41ZM2193.64 1300.71 2191.09 1290.71 2194.42 1289.86 2196.97 1299.86ZM2190.18 1287.49 2187.13 1277.64 2190.41 1276.62 2193.46 1286.47ZM2186.02 1274.47 2182.49 1264.78 2185.72 1263.61 2189.25 1273.3ZM2181.21 1261.68 2177.34 1252.46 2177.24 1252.25 2180.35 1250.78 2180.52 1251.14 2184.38 1260.36ZM2175.77 1249.14 2171.72 1240.61 2171.35 1239.91 2174.39 1238.3 2174.83 1239.13 2178.88 1247.67ZM2169.74 1236.87 2165.55 1228.97 2164.89 1227.86 2167.86 1226.12 2168.59 1227.36 2172.78 1235.26ZM2163.15 1224.9 2158.85 1217.58 2157.9 1216.11 2160.78 1214.24 2161.81 1215.84 2166.11 1223.15ZM2156.03 1213.23 2151.65 1206.47 2150.38 1204.68 2153.19 1202.69 2154.54 1204.6 2158.91 1211.36ZM2148.4 1201.88 2143.97 1195.65 2142.38 1193.59 2145.1 1191.49 2146.78 1193.66 2151.2 1199.89ZM2140.27 1190.88 2135.84 1185.16 2133.9 1182.86 2136.53 1180.64 2138.56 1183.05 2142.99 1188.77ZM2131.69 1180.23 2127.28 1175.01 2124.98 1172.5 2127.51 1170.18 2129.91 1172.8 2134.32 1178.02ZM2122.65 1169.97 2118.32 1165.24 2115.61 1162.53 2118.05 1160.11 2120.85 1162.92 2125.19 1167.64ZM2113.19 1160.1 2108.97 1155.87 2105.83 1152.98 2108.16 1150.45 2111.4 1153.44 2115.62 1157.67ZM2103.3 1150.65 2099.27 1146.92 2095.64 1143.86 2097.86 1141.23 2101.6 1144.4 2105.63 1148.12ZM2093.02 1141.64 2089.23 1138.43 2085.06 1135.2 2087.17 1132.48 2091.45 1135.8 2095.24 1139.01ZM2082.34 1133.09 2078.88 1130.4 2074.1 1127.02 2076.09 1124.22 2080.99 1127.69 2084.45 1130.37ZM2071.3 1125.04 2068.25 1122.88 2062.78 1119.37 2064.64 1116.47 2070.24 1120.08 2073.28 1122.23ZM2059.89 1117.51 2057.36 1115.88 2051.1 1112.26 2052.83 1109.28 2059.22 1112.99 2061.74 1114.62ZM2048.13 1110.53 2046.23 1109.43 2039.09 1105.74 2040.68 1102.69 2047.95 1106.46 2049.85 1107.56ZM2036.04 1104.16 2034.89 1103.56 2026.77 1099.84 2028.2 1096.72 2036.47 1100.51 2037.62 1101.11ZM2023.64 1098.41 2023.36 1098.29 2014.15 1094.62 2015.42 1091.43 2024.79 1095.16 2025.07 1095.29ZM2011.02 1093.42 2001.26 1090.11 2002.36 1086.86 2012.13 1090.16ZM1998.06 1089.14 1988.12 1086.37 1989.05 1083.06 1998.98 1085.83ZM1984.86 1085.65 1975.86 1083.68 1974.92 1083.56 1975.36 1080.15 1976.59 1080.32 1985.6 1082.29ZM1971.51 1083.12 1962.13 1081.9 1962.58 1078.49 1971.95 1079.71ZM1965.91 1094.24 1939.5 1078.5 1967.94 1066.82Z" fill="#000000" fill-rule="nonzero" fill-opacity="1"/><rect x="2430.5" y="678.5" width="648" height="1039" stroke="#B4DDFF" stroke-width="4.58333" stroke-linecap="butt" stroke-linejoin="miter" stroke-miterlimit="8" stroke-dasharray="36.6667 13.75" stroke-opacity="1" fill="#F2F2F2" fill-opacity="0.501961"/><text fill="#000000" fill-opacity="1" font-family="IntelOne Display Regular,IntelOne Display Regular_MSFontService,sans-serif" font-style="normal" font-variant="normal" font-weight="400" font-stretch="normal" font-size="48" text-anchor="start" direction="ltr" writing-mode="lr-tb" unicode-bidi="normal" text-decoration="none" transform="matrix(1 0 0 1 2543.22 740)">Resource Managers</text><path d="M1739.5 1504.44C1739.5 1493.43 1748.43 1484.5 1759.44 1484.5L3105.56 1484.5C3116.57 1484.5 3125.5 1493.43 3125.5 1504.44L3125.5 1741.56C3125.5 1752.57 3116.57 1761.5 3105.56 1761.5L1759.44 1761.5C1748.43 1761.5 1739.5 1752.57 1739.5 1741.56Z" stroke="#B4DDFF" stroke-width="4.58333" stroke-linecap="butt" stroke-linejoin="miter" stroke-miterlimit="8" stroke-dasharray="36.6667 13.75" stroke-opacity="1" fill="#F2F2F2" fill-rule="evenodd" fill-opacity="0.501961"/><text fill="#000000" fill-opacity="1" font-family="IntelOne Display Regular,IntelOne Display Regular_MSFontService,sans-serif" font-style="normal" font-variant="normal" font-weight="400" font-stretch="normal" font-size="48" text-anchor="start" direction="ltr" writing-mode="lr-tb" unicode-bidi="normal" text-decoration="none" transform="matrix(1 0 0 1 2132.17 1552)">Provisioning and onboarding </text><rect x="1278.5" y="1012.5" width="661" height="133" stroke="#000000" stroke-width="1.14583" stroke-linecap="butt" stroke-linejoin="miter" stroke-miterlimit="8" stroke-opacity="1" fill="#69BCFF" fill-opacity="0.831373"/><text fill="#000000" fill-opacity="1" font-family="IntelOne Display Regular,IntelOne Display Regular_MSFontService,sans-serif" font-style="normal" font-variant="normal" font-weight="400" font-stretch="normal" font-size="46" text-anchor="start" direction="ltr" writing-mode="lr-tb" unicode-bidi="normal" text-decoration="none" transform="matrix(1 0 0 1 1478.22 1065)">Inventory DB</text><text fill="#000000" fill-opacity="1" font-family="IntelOne Display Regular,IntelOne Display Regular_MSFontService,sans-serif" font-style="normal" font-variant="normal" font-weight="400" font-stretch="normal" font-size="46" text-anchor="start" direction="ltr" writing-mode="lr-tb" unicode-bidi="normal" text-decoration="none" transform="matrix(1 0 0 1 1369.64 1120)">(CRUD and messaging)</text><path d="M1277.5 1283.67C1277.5 1270.32 1425.02 1259.5 1607 1259.5 1788.98 1259.5 1936.5 1270.32 1936.5 1283.67L1936.5 1380.33C1936.5 1393.68 1788.98 1404.5 1607 1404.5 1425.02 1404.5 1277.5 1393.68 1277.5 1380.33Z" fill="#7F7F7F" fill-rule="evenodd" fill-opacity="0.501961"/><path d="M1936.5 1283.67C1936.5 1297.01 1788.98 1307.83 1607 1307.83 1425.02 1307.83 1277.5 1297.01 1277.5 1283.67" stroke="#000000" stroke-width="1.14583" stroke-linecap="butt" stroke-linejoin="miter" stroke-miterlimit="8" stroke-opacity="1" fill="none" fill-rule="evenodd"/><path d="M1277.5 1283.67C1277.5 1270.32 1425.02 1259.5 1607 1259.5 1788.98 1259.5 1936.5 1270.32 1936.5 1283.67L1936.5 1380.33C1936.5 1393.68 1788.98 1404.5 1607 1404.5 1425.02 1404.5 1277.5 1393.68 1277.5 1380.33Z" stroke="#000000" stroke-width="1.14583" stroke-linecap="butt" stroke-linejoin="miter" stroke-miterlimit="8" stroke-opacity="1" fill="none" fill-rule="evenodd"/><text fill="#000000" fill-opacity="1" font-family="IntelOne Display Regular,IntelOne Display Regular_MSFontService,sans-serif" font-style="normal" font-variant="normal" font-weight="400" font-stretch="normal" font-size="46" text-anchor="start" direction="ltr" writing-mode="lr-tb" unicode-bidi="normal" text-decoration="none" transform="matrix(1 0 0 1 1410.55 1358)">Inventory Datastore</text><rect x="1329.5" y="591.5" width="914" height="117" stroke="#000000" stroke-width="1.14583" stroke-linecap="butt" stroke-linejoin="miter" stroke-miterlimit="8" stroke-opacity="1" fill="#7F7F7F" fill-opacity="0.501961"/><text fill="#000000" fill-opacity="1" font-family="IntelOne Display Regular,IntelOne Display Regular_MSFontService,sans-serif" font-style="normal" font-variant="normal" font-weight="400" font-stretch="normal" font-size="46" text-anchor="start" direction="ltr" writing-mode="lr-tb" unicode-bidi="normal" text-decoration="none" transform="matrix(1 0 0 1 1656.28 664)">API Gateway</text><rect x="2466.5" y="939.5" width="576" height="89.0001" stroke="#000000" stroke-width="1.14583" stroke-linecap="butt" stroke-linejoin="miter" stroke-miterlimit="8" stroke-opacity="1" fill="#69BCFF" fill-opacity="0.831373"/><text fill="#000000" fill-opacity="1" font-family="IntelOne Display Regular,IntelOne Display Regular_MSFontService,sans-serif" font-style="normal" font-variant="normal" font-weight="400" font-stretch="normal" font-size="46" text-anchor="start" direction="ltr" writing-mode="lr-tb" unicode-bidi="normal" text-decoration="none" transform="matrix(1 0 0 1 2613.7 998)">Host manager</text><rect x="2466.5" y="1159.5" width="574" height="89" stroke="#000000" stroke-width="1.14583" stroke-linecap="butt" stroke-linejoin="miter" stroke-miterlimit="8" stroke-opacity="1" fill="#69BCFF" fill-opacity="0.831373"/><text fill="#000000" fill-opacity="1" font-family="IntelOne Display Regular,IntelOne Display Regular_MSFontService,sans-serif" font-style="normal" font-variant="normal" font-weight="400" font-stretch="normal" font-size="41" text-anchor="start" direction="ltr" writing-mode="lr-tb" unicode-bidi="normal" text-decoration="none" transform="matrix(1 0 0 1 2502.51 1216)">Telemetry C</text><text fill="#000000" fill-opacity="1" font-family="IntelOne Display Regular,IntelOne Display Regular_MSFontService,sans-serif" font-style="normal" font-variant="normal" font-weight="400" font-stretch="normal" font-size="41" text-anchor="start" direction="ltr" writing-mode="lr-tb" unicode-bidi="normal" text-decoration="none" transform="matrix(1 0 0 1 2724.22 1216)">-</text><text fill="#000000" fill-opacity="1" font-family="IntelOne Display Regular,IntelOne Display Regular_MSFontService,sans-serif" font-style="normal" font-variant="normal" font-weight="400" font-stretch="normal" font-size="41" text-anchor="start" direction="ltr" writing-mode="lr-tb" unicode-bidi="normal" text-decoration="none" transform="matrix(1 0 0 1 2737.4 1216)">plane manager </text><rect x="2468.5" y="783.5" width="576" height="89.0001" stroke="#000000" stroke-width="1.14583" stroke-linecap="butt" stroke-linejoin="miter" stroke-miterlimit="8" stroke-opacity="1" fill="#FF0000" fill-opacity="0.831373"/><text fill="#FFFFFF" fill-opacity="1" font-family="IntelOne Display Regular,IntelOne Display Regular_MSFontService,sans-serif" font-style="normal" font-variant="normal" font-weight="400" font-stretch="normal" font-size="46" text-anchor="start" direction="ltr" writing-mode="lr-tb" unicode-bidi="normal" text-decoration="none" transform="matrix(1 0 0 1 2627.64 842)">DM manager</text><rect x="2468.5" y="1052.5" width="574" height="88" stroke="#000000" stroke-width="1.14583" stroke-linecap="butt" stroke-linejoin="miter" stroke-miterlimit="8" stroke-opacity="1" fill="#69BCFF" fill-opacity="0.831373"/><text fill="#000000" fill-opacity="1" font-family="IntelOne Display Regular,IntelOne Display Regular_MSFontService,sans-serif" font-style="normal" font-variant="normal" font-weight="400" font-stretch="normal" font-size="46" text-anchor="start" direction="ltr" writing-mode="lr-tb" unicode-bidi="normal" text-decoration="none" transform="matrix(1 0 0 1 2544.04 1110)">Maintenance manger</text><rect x="2463.5" y="1582.5" width="574" height="89" stroke="#000000" stroke-width="1.14583" stroke-linecap="butt" stroke-linejoin="miter" stroke-miterlimit="8" stroke-opacity="1" fill="#69BCFF" fill-opacity="0.831373"/><text fill="#000000" fill-opacity="1" font-family="IntelOne Display Regular,IntelOne Display Regular_MSFontService,sans-serif" font-style="normal" font-variant="normal" font-weight="400" font-stretch="normal" font-size="46" text-anchor="start" direction="ltr" writing-mode="lr-tb" unicode-bidi="normal" text-decoration="none" transform="matrix(1 0 0 1 2536.51 1641)">Onboarding manager </text><path d="M1789.29 731.416 1789.29 745.166 1784.7 745.166 1784.7 731.416ZM1789.29 749.75 1789.29 763.5 1784.7 763.5 1784.7 749.75ZM1789.29 768.083 1789.29 781.833 1784.7 781.833 1784.7 768.083ZM1789.29 786.416 1789.29 800.166 1784.7 800.166 1784.7 786.416ZM1789.29 804.75 1789.29 818.5 1784.7 818.5 1784.7 804.75ZM1789.29 823.083 1789.29 836.833 1784.7 836.833 1784.7 823.083ZM1789.29 841.416 1789.29 855.166 1784.7 855.166 1784.7 841.416ZM1789.29 859.75 1789.29 860.44C1789.29 861.706 1788.26 862.732 1787 862.732L1773.94 862.732 1773.94 858.149 1787 858.149 1784.7 860.44 1784.7 859.75ZM1769.35 862.732 1755.6 862.732 1755.6 858.149 1769.35 858.149ZM1751.02 862.732 1737.27 862.732 1737.27 858.149 1751.02 858.149ZM1732.69 862.732 1718.94 862.732 1718.94 858.149 1732.69 858.149ZM1714.35 862.732 1700.6 862.732 1700.6 858.149 1714.35 858.149ZM1696.02 862.732 1682.27 862.732 1682.27 858.149 1696.02 858.149ZM1677.69 862.732 1663.94 862.732 1663.94 858.149 1677.69 858.149ZM1659.35 862.732 1645.6 862.732 1645.6 858.149 1659.35 858.149ZM1641.02 862.732 1627.27 862.732 1627.27 858.149 1641.02 858.149ZM1622.69 862.732 1609.5 862.732 1611.79 860.44 1611.79 861.004 1607.21 861.004 1607.21 860.44C1607.21 859.175 1608.23 858.149 1609.5 858.149L1622.69 858.149ZM1611.79 865.587 1611.79 879.337 1607.21 879.337 1607.21 865.587ZM1611.79 883.92 1611.79 897.67 1607.21 897.67 1607.21 883.92ZM1611.79 902.254 1611.79 916.004 1607.21 916.004 1607.21 902.254ZM1611.79 920.587 1611.79 934.337 1607.21 934.337 1607.21 920.587ZM1611.79 938.92 1611.79 952.67 1607.21 952.67 1607.21 938.92ZM1611.79 957.254 1611.79 971.004 1607.21 971.004 1607.21 957.254ZM1611.79 975.587 1611.79 989.337 1607.21 989.337 1607.21 975.587ZM1773.25 736 1787 708.5 1800.75 736ZM1623.25 984.881 1609.5 1012.38 1595.75 984.881Z" fill="#000000" fill-rule="nonzero" fill-opacity="1"/><text fill="#000000" fill-opacity="1" font-family="IntelOne Display Regular,IntelOne Display Regular_MSFontService,sans-serif" font-style="normal" font-variant="normal" font-weight="400" font-stretch="normal" font-size="48" text-anchor="start" direction="ltr" writing-mode="lr-tb" unicode-bidi="normal" text-decoration="none" transform="matrix(1 0 0 1 1827.75 351)">User Intent</text><path d="M2466.59 1204.96 2456.28 1204.81 2456.33 1201.38 2466.64 1201.52ZM2452.84 1204.76 2442.53 1204.61 2442.58 1201.18 2452.89 1201.33ZM2439.05 1204.48 2428.75 1204.04 2428.89 1200.61 2439.2 1201.05ZM2425.31 1203.9 2417.38 1203.56 2414.97 1203.39 2415.21 1199.96 2417.53 1200.12 2425.46 1200.46ZM2411.54 1203.15 2401.25 1202.43 2401.49 1199 2411.78 1199.72ZM2397.82 1202.19 2393.24 1201.87 2387.5 1201.32 2387.83 1197.9 2393.48 1198.44 2398.06 1198.76ZM2384.08 1200.99 2373.81 1199.99 2374.14 1196.57 2384.41 1197.57ZM2370.39 1199.66 2369.68 1199.59 2360.11 1198.41 2360.53 1194.99 2370.01 1196.17 2370.72 1196.24ZM2356.7 1197.98 2346.88 1196.76 2346.42 1196.69 2346.94 1193.3 2347.31 1193.35 2357.12 1194.57ZM2343.02 1196.17 2332.83 1194.62 2333.34 1191.22 2343.54 1192.78ZM2329.43 1194.1 2325.06 1193.43 2319.21 1192.36 2319.83 1188.98 2325.57 1190.03 2329.95 1190.7ZM2315.83 1191.74 2305.69 1189.88 2306.31 1186.5 2316.45 1188.36ZM2302.28 1189.2 2294.52 1187.58 2292.16 1187.04 2292.92 1183.69 2295.23 1184.22 2302.98 1185.83ZM2288.81 1186.28 2285.04 1185.43 2278.75 1183.88 2279.57 1180.54 2285.8 1182.08 2289.57 1182.93ZM2275.38 1183.03 2267.25 1180.85 2265.39 1180.31 2266.36 1177.01 2268.14 1177.53 2276.27 1179.71ZM2262.09 1179.35 2258.99 1178.44 2252.21 1176.28 2253.25 1173 2259.95 1175.14 2263.06 1176.05ZM2248.91 1175.15 2243.85 1173.39 2239.18 1171.59 2240.41 1168.38 2244.99 1170.14 2250.04 1171.91ZM2235.93 1170.29 2230.72 1168.07 2226.46 1166.03 2227.94 1162.93 2232.07 1164.91 2237.27 1167.13ZM2223.32 1164.43 2219.78 1162.52 2215.18 1159.67 2214.28 1159.02 2216.31 1156.24 2217 1156.75 2221.41 1159.5 2224.95 1161.41ZM2211.51 1156.99 2211.19 1156.76 2207.84 1153.79 2205.14 1150.76C2205.08 1150.69 2205.02 1150.62 2204.98 1150.54L2204.03 1149.06 2206.93 1147.21 2207.87 1148.69 2207.71 1148.48 2210.12 1151.22 2213.22 1153.98 2213.53 1154.21ZM2202.34 1145.71 2201.84 1144.42C2201.79 1144.29 2201.75 1144.15 2201.74 1144.02L2201.35 1141.09 2200.97 1138.17 2201.07 1138.57 2199.98 1135.74 2203.18 1134.5 2204.28 1137.33C2204.33 1137.46 2204.36 1137.59 2204.38 1137.73L2204.76 1140.65 2205.14 1143.57 2205.04 1143.17 2205.54 1144.46ZM2198.3 1133.14 2198.24 1133.05 2198.4 1133.26 2195.85 1130.38 2192.77 1127.66 2191.25 1126.56 2193.28 1123.78 2195.05 1125.09 2198.43 1128.1 2200.98 1130.99C2201.04 1131.05 2201.09 1131.13 2201.14 1131.2L2201.2 1131.29ZM2188.56 1124.64 2184.61 1122.19 2179.72 1119.55 2181.35 1116.52 2186.43 1119.27 2190.37 1121.72ZM2176.69 1118.1 2173.98 1116.8 2167.8 1114.17 2167.38 1114.01 2168.61 1110.8 2169.15 1111.01 2175.46 1113.7 2178.18 1115ZM2164.17 1112.77 2161.08 1111.58 2154.52 1109.29 2155.66 1106.05 2162.31 1108.37 2165.41 1109.56ZM2151.3 1108.24 2146.13 1106.59 2141.48 1105.23 2142.44 1101.93 2147.17 1103.32 2152.34 1104.97ZM2138.18 1104.27 2137.94 1104.2 2129.32 1101.89 2128.28 1101.63 2129.11 1098.3 2130.21 1098.57 2138.91 1100.9 2139.14 1100.97ZM2124.95 1100.81 2120.28 1099.66 2114.94 1098.45 2115.7 1095.09 2121.11 1096.32 2125.77 1097.47ZM2111.59 1097.69 2110.86 1097.52 2101.53 1095.57 2102.23 1092.21 2111.62 1094.17 2112.35 1094.33ZM2098.19 1094.95 2088.05 1093.09 2088.67 1089.71 2098.81 1091.57ZM2084.66 1092.47 2080.49 1091.7 2074.54 1090.79 2075.06 1087.4 2081.11 1088.32 2085.29 1089.09ZM2071.14 1090.28 2060.95 1088.72 2061.47 1085.32 2071.66 1086.88ZM2057.59 1088.24 2047.36 1086.97 2047.78 1083.56 2058.02 1084.83ZM2043.95 1086.54 2036.06 1085.57 2033.76 1085.34 2034.09 1081.92 2036.49 1082.15 2044.37 1083.13ZM2030.33 1085.01 2020.07 1084.02 2020.4 1080.6 2030.66 1081.59ZM2016.65 1083.69 2012.59 1083.29 2006.41 1082.86 2006.65 1079.43 2012.92 1079.87 2016.98 1080.27ZM2002.99 1082.62 1992.7 1081.91 1992.94 1078.48 2003.23 1079.19ZM1989.27 1081.67 1988.54 1081.62 1979.02 1081.25 1979.15 1077.82 1988.78 1078.19 1989.51 1078.24ZM1975.58 1081.12 1965.28 1080.73 1965.41 1077.29 1975.72 1077.69ZM1966.76 1092.73 1939.5 1078.5 1967.23 1065.23Z" fill="#000000" fill-rule="nonzero" fill-opacity="1"/><path d="M2468.62 1097.76 2458.3 1097.74 2458.31 1094.3 2468.62 1094.32ZM2454.87 1097.73 2444.55 1097.71 2444.56 1094.27 2454.87 1094.29ZM2441.11 1097.69 2430.8 1097.63 2430.82 1094.19 2441.13 1094.25ZM2427.36 1097.61 2419.26 1097.56 2417.04 1097.54 2417.07 1094.1 2419.28 1094.12 2427.38 1094.17ZM2413.6 1097.51 2403.29 1097.41 2403.32 1093.97 2413.64 1094.07ZM2399.85 1097.37 2395.07 1097.32 2389.54 1097.25 2389.58 1093.81 2395.1 1093.89 2399.89 1093.93ZM2386.1 1097.2 2375.79 1097.06 2375.83 1093.63 2386.15 1093.77ZM2372.35 1097.02 2371.45 1097 2362.03 1096.84 2362.09 1093.4 2371.5 1093.57 2372.4 1093.58ZM2358.6 1096.78 2348.61 1096.61 2348.28 1096.6 2348.35 1093.16 2348.67 1093.17 2358.66 1093.34ZM2344.84 1096.53 2334.53 1096.31 2334.6 1092.87 2344.91 1093.09ZM2331.09 1096.23 2326.74 1096.14 2320.78 1095.99 2320.87 1092.55 2326.82 1092.7 2331.17 1092.8ZM2317.34 1095.9 2307.03 1095.63 2307.12 1092.2 2317.43 1092.46ZM2303.59 1095.54 2296.18 1095.32 2293.28 1095.23 2293.39 1091.79 2296.28 1091.88 2303.69 1092.1ZM2289.84 1095.12 2286.68 1095.02 2279.53 1094.77 2279.65 1091.33 2286.79 1091.58 2289.95 1091.68ZM2276.09 1094.65 2268.88 1094.38 2265.78 1094.25 2265.92 1090.81 2269 1090.94 2276.22 1091.21ZM2262.34 1094.11 2260.61 1094.04 2252.81 1093.69 2252.03 1093.65 2252.2 1090.22 2252.97 1090.25 2260.75 1090.6 2262.48 1090.67ZM2248.59 1093.48 2245.49 1093.33 2238.68 1092.96 2238.28 1092.94 2238.48 1089.51 2238.87 1089.53 2245.66 1089.9 2248.76 1090.05ZM2234.85 1092.73 2232.4 1092.59 2226.68 1092.2 2224.53 1092.04 2224.79 1088.61 2226.91 1088.78 2232.61 1089.16 2235.05 1089.3ZM2221.08 1091.78 2216.99 1091.42 2213.07 1091.02 2210.76 1090.73 2211.19 1087.32 2213.42 1087.6 2217.29 1088 2221.38 1088.35ZM2207.3 1090.22 2207.17 1090.2 2205.21 1089.77 2203.86 1089.3C2203.6 1089.2 2203.37 1089.05 2203.19 1088.85L2202.8 1088.44 2202.42 1088.03 2203.09 1088.47 2201.96 1088.06 2200.31 1087.72 2197.85 1087.33 2197.67 1087.31 2198.1 1083.9 2198.39 1083.94 2201.05 1084.36 2203.13 1084.83 2204.26 1085.24C2204.52 1085.33 2204.75 1085.49 2204.93 1085.69L2205.32 1086.1 2205.7 1086.51 2205.03 1086.06 2205.95 1086.41 2207.71 1086.8 2207.84 1086.82ZM2194.3 1086.9 2190.81 1086.54 2186.31 1086.15 2184.07 1085.98 2184.33 1082.55 2186.6 1082.73 2191.16 1083.12 2194.65 1083.48ZM2180.66 1085.73 2175.5 1085.38 2170.38 1085.08 2170.59 1081.65 2175.73 1081.95 2180.89 1082.3ZM2166.96 1084.89 2162.45 1084.64 2156.67 1084.36 2156.84 1080.93 2162.63 1081.21 2167.14 1081.45ZM2153.24 1084.2 2147.36 1083.94 2142.95 1083.76 2143.09 1080.32 2147.51 1080.5 2153.4 1080.77ZM2139.51 1083.62 2139.11 1083.6 2130.42 1083.27 2129.22 1083.23 2129.34 1079.8 2130.55 1079.84 2139.25 1080.16 2139.65 1080.18ZM2125.78 1083.11 2121.33 1082.96 2115.48 1082.77 2115.59 1079.34 2121.44 1079.52 2125.9 1079.68ZM2112.04 1082.66 2111.84 1082.66 2101.99 1082.37 2101.75 1082.36 2101.83 1078.93 2102.09 1078.93 2111.95 1079.22 2112.15 1079.23ZM2098.31 1082.27 2088 1082.01 2088.09 1078.57 2098.4 1078.84ZM2084.56 1081.92 2081.29 1081.84 2074.26 1081.69 2074.33 1078.25 2081.38 1078.4 2084.65 1078.48ZM2070.82 1081.61 2060.51 1081.39 2060.59 1077.96 2070.9 1078.18ZM2057.08 1081.33 2046.77 1081.15 2046.83 1077.71 2057.14 1077.89ZM2043.34 1081.09 2036.61 1080.97 2033.03 1080.92 2033.08 1077.49 2036.67 1077.54 2043.4 1077.65ZM2029.59 1080.88 2019.28 1080.74 2019.33 1077.3 2029.64 1077.44ZM2015.85 1080.69 2013.01 1080.65 2005.54 1080.58 2005.57 1077.14 2013.06 1077.21 2015.89 1077.25ZM2002.1 1080.55 1991.79 1080.44 1991.82 1077.01 2002.14 1077.11ZM1988.36 1080.41 1978.05 1080.36 1978.07 1076.92 1988.38 1076.98ZM1974.61 1080.34 1964.3 1080.28 1964.32 1076.85 1974.63 1076.9ZM1966.97 1092.32 1939.5 1078.5 1967.03 1064.82Z" fill="#000000" fill-rule="nonzero" fill-opacity="1"/><path d="M0.0499673-1.71802 10.3581-1.41822 10.2582 2.01783-0.0499673 1.71802ZM13.7942-1.31829 24.1023-1.01848 24.0024 2.41757 13.6942 2.11776ZM27.626-0.760493 37.901 0.117466 37.6084 3.54249 27.3333 2.66453ZM41.3261 0.410119 49.4899 1.10769 51.6804 1.41193 51.2036 4.8162 49.1973 4.53271 41.0334 3.83514ZM55.0847 1.88867 65.2975 3.31892 64.8207 6.7232 54.6079 5.29295ZM68.7018 3.79567 73.7694 4.50536 78.9588 5.51039 78.3037 8.88488 73.2926 7.90964 68.225 7.19995ZM82.3333 6.1655 92.4568 8.13084 91.8017 11.5053 81.6782 9.54ZM95.8313 8.78596 97.4647 9.10306 105.945 11.2127 105.114 14.5483 96.8096 12.4776 95.1762 12.1605ZM109.28 12.0435 119.287 14.5358 118.456 17.8714 108.45 15.3791ZM122.678 15.5093 132.538 18.5301 131.531 21.8168 121.671 18.796ZM135.825 19.5371 142.334 21.5313 145.713 22.772 144.526 25.998 141.327 24.818 134.818 22.8238ZM148.939 23.9592 158.617 27.5207 157.43 30.7467 147.752 27.1852ZM161.843 28.7079 163.124 29.1792 171.448 32.662 170.12 35.8329 161.937 32.4052 160.656 31.9339ZM174.646 34.0586 182.586 37.6732 184.06 38.4015 182.535 41.4825 181.162 40.8017 173.222 37.1871ZM187.141 39.9261 191.739 42.2012 196.355 44.684 194.726 47.7111 190.214 45.2822 185.616 43.007ZM199.382 46.3129 200.482 46.9049 208.356 51.518 206.618 54.4837 198.853 49.9319 197.753 49.34ZM211.319 53.3888 216.643 56.7953 219.972 59.1272 217.999 61.9419 214.79 59.6908 209.466 56.2844ZM222.787 61.1005 224.014 61.9607 230.879 67.259 231.114 67.4575 228.879 70.0689 228.778 69.98 222.04 64.7754 220.813 63.9152ZM233.726 69.6929 237.215 72.6802 241.417 76.6999 239.039 79.1826 234.98 75.2916 231.49 72.3043ZM243.919 79.2076 248.203 83.8522 250.779 87.0577 248.098 89.2083 245.677 86.1829 241.392 81.5383ZM252.997 89.8553 256.78 95.4026 258.621 98.6656 255.624 100.35 253.94 97.3395 250.157 91.7922ZM260.343 101.829 262.738 107.261 264.13 111.604 260.854 112.646 259.592 108.648 257.198 103.216ZM265.031 115.123 265.848 119.35 266.259 125.448 266.266 125.559 262.836 125.782 262.829 125.671 262.473 120.002 261.656 115.775ZM266.49 128.989 266.642 131.331 267.749 136.989 268.301 138.685 265.025 139.727 264.374 137.641 263.212 131.555 263.059 129.212ZM269.343 141.961 269.56 142.644 272.058 148.286 273.572 150.963 270.575 152.647 268.913 149.673 266.284 143.686 266.067 143.003ZM275.182 153.831 279.042 159.491 281.129 162.084 278.447 164.235 276.202 161.428 272.342 155.768ZM283.279 164.766 283.488 165.026 288.541 170.498 290.209 172.09 287.831 174.573 286.015 172.829 280.807 167.177 280.598 166.917ZM292.691 174.468 294.178 175.892 300.376 181.194 298.209 183.861 298.141 183.805 291.801 178.375 290.314 176.951ZM303.031 183.241 307.111 186.391 311.271 189.305 309.297 192.12 305.01 189.112 300.93 185.962ZM314.085 191.278 314.357 191.469 322.092 196.415 322.661 196.748 320.923 199.714 320.239 199.311 312.384 194.284 312.112 194.093ZM325.627 198.486 330.289 201.218 334.557 203.513 332.928 206.541 328.551 204.184 323.889 201.452ZM337.584 205.142 338.925 205.864 346.751 209.735 345.227 212.816 337.297 208.891 335.956 208.169ZM349.811 211.176 357.416 214.638 359.172 215.372 357.845 218.543 355.992 217.766 348.386 214.304ZM362.343 216.7 367.221 218.742 371.866 220.449 370.679 223.675 365.893 221.912 361.015 219.87ZM375.092 221.636 384.77 225.198 383.583 228.424 373.905 224.862ZM387.909 226.347 397.769 229.367 396.762 232.654 386.902 229.633ZM401.055 230.374 409.623 232.999 410.847 233.301 410.016 236.637 408.616 236.286 400.048 233.661ZM414.182 234.132 424.189 236.625 423.358 239.96 413.351 237.468ZM427.525 237.455 432.366 238.661 437.504 239.656 436.849 243.031 431.535 241.997 426.694 240.791ZM440.878 240.311 451.002 242.277 450.347 245.651 440.223 243.686ZM454.376 242.932 455.884 243.224 464.487 244.427 464.01 247.831 455.229 246.599 453.721 246.306ZM467.891 244.903 478.104 246.334 477.627 249.738 467.414 248.308ZM481.411 246.703 491.694 247.491 491.431 250.918 481.149 250.13ZM495.121 247.754 505.404 248.542 505.141 251.969 494.859 251.181ZM502.08 236.425 529.087 251.119 501.128 263.908Z" fill="#000000" fill-rule="nonzero" fill-opacity="1" transform="matrix(-1 1.22465e-16 1.22465e-16 1 2468.59 827.5)"/><path d="M0.0189102-1.71865 10.3308-1.60518 10.293 1.83211-0.0189102 1.71865ZM13.7681-1.56736 24.08-1.4539 24.0421 1.98339 13.7303 1.86993ZM27.5526-1.35516 37.8597-1.02198 37.7486 2.41372 27.4415 2.08054ZM41.2954-0.910922 49.2154-0.654905 51.6358-0.527036 51.4539 2.90565 49.1043 2.7808 41.1843 2.52478ZM55.0685-0.34517 65.3665 0.200428 65.1847 3.63311 54.8866 3.08752ZM68.7992 0.382294 73.3481 0.623298 79.1248 1.04721 78.8731 4.47548 73.1663 4.05598 68.6174 3.81498ZM82.5531 1.299 92.8379 2.05436 92.5861 5.48263 82.3013 4.72726ZM96.2662 2.30615 96.9013 2.3528 106.57 3.26342 106.247 6.68576 96.6495 5.78106 96.0144 5.73442ZM109.992 3.58588 119.683 4.49899 120.294 4.56948 119.899 7.98412 119.36 7.92133 109.67 7.00822ZM123.709 4.96525 133.953 6.15256 133.557 9.5672 123.313 8.37989ZM137.368 6.54833 141.5 7.02734 147.633 7.88065 147.159 11.2853 141.105 10.442 136.972 9.96298ZM151.037 8.35465 161.251 9.77665 160.777 13.1813 150.563 11.7593ZM164.681 10.3021 172.011 11.4629 174.883 11.9574 174.3 15.3451 171.473 14.8581 164.143 13.6972ZM178.271 12.5409 181.488 13.095 188.44 14.3962 187.807 17.775 180.905 16.4827 177.687 15.9285ZM191.842 15.0534 199.267 16.565 201.966 17.1632 201.222 20.5192 198.581 19.9334 191.156 18.4218ZM205.322 17.9073 207.52 18.3945 215.318 20.2817 215.423 20.3092 214.542 23.6318 214.509 23.6227 206.776 21.7505 204.578 21.2633ZM218.746 21.1904 222.637 22.2225 228.713 23.9966 227.749 27.2962 221.756 25.5451 217.865 24.5131ZM232.037 25.0489 235.748 26.2506 241.495 28.3314 241.894 28.4937 240.59 31.6741 240.324 31.5634 234.689 29.5209 230.978 28.3192ZM245.074 29.798 246.673 30.4535 251.262 32.6158 254.511 34.4137 252.844 37.4198 249.795 35.7248 245.368 33.6339 243.77 32.9784ZM257.526 36.3494 258.599 37.0715 261.312 39.3845C261.383 39.4452 261.448 39.5113 261.508 39.5826L263.362 41.7872C263.446 41.8869 263.518 41.9958 263.577 42.1118L264.707 44.3251C264.786 44.4792 264.841 44.6443 264.87 44.8149L264.919 45.0994 261.532 45.683 261.483 45.3985 261.646 45.8883 260.516 43.675 260.731 43.9996 258.877 41.795 259.073 41.9931 256.679 39.9229 255.606 39.2008ZM265.503 48.487 265.634 49.25 265.471 48.7602 266.602 50.9735 266.386 50.6488 268.24 52.8534 268.044 52.6553 270.598 54.8469 271.108 55.1765 269.188 58.0279 268.359 57.4555 265.805 55.2639C265.735 55.2032 265.669 55.1372 265.609 55.0658L263.755 52.8613C263.671 52.7616 263.599 52.6527 263.54 52.5367L262.41 50.3234C262.331 50.1693 262.276 50.0042 262.247 49.8336L262.115 49.0706ZM273.849 56.9931 277.422 58.975 281.83 61.0501 282.898 61.4856 281.594 64.6661 280.363 64.1591 275.755 61.981 272.182 59.9992ZM286.078 62.79 286.86 63.1106 292.484 65.1465 295.677 66.1794 294.618 69.4497 291.313 68.3784 285.556 66.2911 284.774 65.9704ZM298.902 67.2159 305.403 69.1145 308.784 70.0107 307.902 73.3333 304.439 72.4141 297.938 70.5155ZM312.106 70.8919 312.644 71.0346 320.374 72.9051 322.065 73.2798 321.321 76.6358 319.565 76.2461 311.763 74.3573 311.225 74.2145ZM325.421 74.0238 328.566 74.7209 335.486 76.1294 334.8 79.4978 327.822 78.0769 324.677 77.3798ZM338.833 76.7837 346.237 78.1698 348.952 78.6372 348.368 82.0248 345.604 81.5486 338.2 80.1626ZM352.339 79.2206 355.667 79.7938 362.495 80.8749 361.957 84.2701 355.084 83.1814 351.756 82.6083ZM365.859 81.3998 376.073 82.8218 375.599 86.2265 365.385 84.8045ZM379.478 83.2958 386.052 84.211 389.663 84.6292 389.268 88.0438 385.578 87.6157 379.004 86.7005ZM393.078 85.0249 403.322 86.2122 402.926 89.6269 392.682 88.4396ZM406.737 86.608 407.794 86.7305 416.965 87.5943 416.642 91.0166 407.398 90.1452 406.341 90.0227ZM420.387 87.9167 430.503 88.8699 430.619 88.878 430.367 92.3063 430.181 92.2922 420.064 91.3391ZM434.047 89.1298 444.332 89.8852 444.08 93.3135 433.795 92.5581ZM447.76 90.137 453.986 90.5942 458.015 90.8074 457.833 94.24 453.734 94.0225 447.508 93.5652ZM461.448 90.9892 471.746 91.5348 471.564 94.9675 461.266 94.4219ZM475.179 91.7167 478.048 91.8687 485.443 92.0825 485.343 95.5186 477.866 95.3014 474.997 95.1494ZM488.879 92.1821 499.187 92.4809 499.088 95.917 488.779 95.6182ZM502.623 92.5805 504.252 92.6277 504.153 96.0638 502.524 96.0165ZM499.801 80.5365 527.117 94.648 499.438 108.034Z" fill="#000000" fill-rule="nonzero" fill-opacity="1" transform="matrix(-1 1.22465e-16 1.22465e-16 1 2466.62 984.5)"/><path d="M2009.39 926.5 2198.61 926.5C2223.4 926.5 2243.5 951.348 2243.5 982 2243.5 1012.65 2223.4 1037.5 2198.61 1037.5L2009.39 1037.5C1984.6 1037.5 1964.5 1012.65 1964.5 982 1964.5 951.348 1984.6 926.5 2009.39 926.5Z" stroke="#000000" stroke-width="4.58333" stroke-linecap="butt" stroke-linejoin="miter" stroke-miterlimit="8" stroke-opacity="1" fill="#FFFFFF" fill-rule="evenodd" fill-opacity="1"/><text fill="#000000" fill-opacity="1" font-family="IntelOne Display Regular,IntelOne Display Regular_MSFontService,sans-serif" font-style="normal" font-variant="normal" font-weight="400" font-stretch="normal" font-size="41" text-anchor="start" direction="ltr" writing-mode="lr-tb" unicode-bidi="normal" text-decoration="none" transform="matrix(1 0 0 1 2011.6 970)">Subscribe </text><text fill="#000000" fill-opacity="1" font-family="IntelOne Display Regular,IntelOne Display Regular_MSFontService,sans-serif" font-style="normal" font-variant="normal" font-weight="400" font-stretch="normal" font-size="41" text-anchor="start" direction="ltr" writing-mode="lr-tb" unicode-bidi="normal" text-decoration="none" transform="matrix(1 0 0 1 2070.33 1020)">API</text><rect x="817.5" y="1189.5" width="258" height="89" stroke="#000000" stroke-width="1.14583" stroke-linecap="butt" stroke-linejoin="miter" stroke-miterlimit="8" stroke-opacity="1" fill="#69BCFF" fill-opacity="0.831373"/><text fill="#000000" fill-opacity="1" font-family="IntelOne Display Regular,IntelOne Display Regular_MSFontService,sans-serif" font-style="normal" font-variant="normal" font-weight="400" font-stretch="normal" font-size="46" text-anchor="start" direction="ltr" writing-mode="lr-tb" unicode-bidi="normal" text-decoration="none" transform="matrix(1 0 0 1 859.979 1248)">Exporter</text><path d="M22.9167-2.29167 36.6667-2.29167 36.6667 2.29167 22.9167 2.29167ZM41.25-2.29167 55-2.29167 55 2.29167 41.25 2.29167ZM59.5833-2.29167 73.3333-2.29167 73.3333 2.29167 59.5833 2.29167ZM77.9167-2.29167 91.6667-2.29167 91.6667 2.29167 77.9167 2.29167ZM96.25-2.29167 110-2.29167 110 2.29167 96.25 2.29167ZM114.583-2.29167 128.333-2.29167 128.333 2.29167 114.583 2.29167ZM132.917-2.29167 146.667-2.29167 146.667 2.29167 132.917 2.29167ZM151.25-2.29167 165-2.29167 165 2.29167 151.25 2.29167ZM169.583-2.29167 183.333-2.29167 183.333 2.29167 169.583 2.29167ZM187.917-2.29167 201.667-2.29167 201.667 2.29167 187.917 2.29167ZM206.25-2.29167 220-2.29167 220 2.29167 206.25 2.29167ZM224.583-2.29167 238.333-2.29167 238.333 2.29167 224.583 2.29167ZM242.917-2.29167 256.667-2.29167 256.667 2.29167 242.917 2.29167ZM261.25-2.29167 275-2.29167 275 2.29167 261.25 2.29167ZM279.583-2.29167 293.333-2.29167 293.333 2.29167 279.583 2.29167ZM297.917-2.29167 311.667-2.29167 311.667 2.29167 297.917 2.29167ZM316.25-2.29167 330-2.29167 330 2.29167 316.25 2.29167ZM334.679 2.19567 334.679 15.9457 330.096 15.9457 330.096 2.19567ZM334.679 20.529 334.679 34.279 330.096 34.279 330.096 20.529ZM334.679 38.8623 334.679 52.6123 330.096 52.6123 330.096 38.8623ZM27.5 13.75 0 0 27.5-13.75ZM346.138 52.1876 332.388 79.6876 318.638 52.1876Z" fill="#000000" fill-rule="nonzero" fill-opacity="1" transform="matrix(-1 1.22465e-16 1.22465e-16 1 1278.89 1110.5)"/><path d="M1473.3 734.5 1691.7 734.5C1720.31 734.5 1743.5 750.394 1743.5 770 1743.5 789.606 1720.31 805.5 1691.7 805.5L1473.3 805.5C1444.69 805.5 1421.5 789.606 1421.5 770 1421.5 750.394 1444.69 734.5 1473.3 734.5Z" stroke="#000000" stroke-width="4.58333" stroke-linecap="butt" stroke-linejoin="miter" stroke-miterlimit="8" stroke-opacity="1" fill="#FFFFFF" fill-rule="evenodd" fill-opacity="1"/><text fill="#000000" fill-opacity="1" font-family="IntelOne Display Regular,IntelOne Display Regular_MSFontService,sans-serif" font-style="normal" font-variant="normal" font-weight="400" font-stretch="normal" font-size="41" text-anchor="start" direction="ltr" writing-mode="lr-tb" unicode-bidi="normal" text-decoration="none" transform="matrix(1 0 0 1 1453.38 783)">Subscribe API</text><path d="M1861.55 735.5 2051.45 735.5C2076.33 735.5 2096.5 750.946 2096.5 770 2096.5 789.054 2076.33 804.5 2051.45 804.5L1861.55 804.5C1836.67 804.5 1816.5 789.054 1816.5 770 1816.5 750.946 1836.67 735.5 1861.55 735.5Z" stroke="#000000" stroke-width="4.58333" stroke-linecap="butt" stroke-linejoin="miter" stroke-miterlimit="8" stroke-opacity="1" fill="#FFFFFF" fill-rule="evenodd" fill-opacity="1"/><text fill="#000000" fill-opacity="1" font-family="IntelOne Display Regular,IntelOne Display Regular_MSFontService,sans-serif" font-style="normal" font-variant="normal" font-weight="400" font-stretch="normal" font-size="41" text-anchor="start" direction="ltr" writing-mode="lr-tb" unicode-bidi="normal" text-decoration="none" transform="matrix(1 0 0 1 1849.4 783)">WebSocket</text><path d="M1605.32 1236.23 1605.37 1228.67 1605.45 1222.46 1610.04 1222.52 1609.96 1228.7 1609.91 1236.26ZM1605.52 1217.87 1605.55 1216.23 1605.62 1212.77 1605.69 1209.73 1605.77 1207.14 1605.85 1205.05 1605.9 1204.04 1610.48 1204.29 1610.43 1205.23 1610.35 1207.28 1610.28 1209.84 1610.2 1212.86 1610.13 1216.3 1610.11 1217.95ZM1606.34 1199.49 1606.35 1199.4 1606.42 1197.36 1606.5 1194.8 1606.57 1191.78 1606.64 1188.35 1606.68 1185.83 1611.27 1185.91 1611.22 1188.44 1611.15 1191.89 1611.08 1194.94 1611 1197.53 1610.92 1199.64 1610.92 1199.73ZM1606.75 1181.25 1606.82 1175.94 1606.87 1168.4 1611.45 1168.43 1611.4 1176 1611.33 1181.31ZM1621.39 1231.73 1607.5 1259.16 1593.89 1231.59ZM1595.39 1172.93 1609.28 1145.5 1622.89 1173.07Z" fill="#000000" fill-rule="nonzero" fill-opacity="1"/><rect x="2468.5" y="1264.5" width="574" height="88.9996" stroke="#000000" stroke-width="1.14583" stroke-linecap="butt" stroke-linejoin="miter" stroke-miterlimit="8" stroke-opacity="1" fill="#69BCFF" fill-opacity="0.831373"/><text fill="#000000" fill-opacity="1" font-family="IntelOne Display Regular,IntelOne Display Regular_MSFontService,sans-serif" font-style="normal" font-variant="normal" font-weight="400" font-stretch="normal" font-size="41" text-anchor="start" direction="ltr" writing-mode="lr-tb" unicode-bidi="normal" text-decoration="none" transform="matrix(1 0 0 1 2567.81 1322)">Networking manager </text><rect x="2463.5" y="1373.5" width="574" height="88" stroke="#000000" stroke-width="1.14583" stroke-linecap="butt" stroke-linejoin="miter" stroke-miterlimit="8" stroke-opacity="1" fill="#69BCFF" fill-opacity="0.831373"/><text fill="#000000" fill-opacity="1" font-family="IntelOne Display Regular,IntelOne Display Regular_MSFontService,sans-serif" font-style="normal" font-variant="normal" font-weight="400" font-stretch="normal" font-size="41" text-anchor="start" direction="ltr" writing-mode="lr-tb" unicode-bidi="normal" text-decoration="none" transform="matrix(1 0 0 1 2552.84 1430)">OS resource manager </text><path d="M2468.58 1310.42 2458.27 1310.16 2458.35 1306.72 2468.66 1306.98ZM2454.83 1310.07 2444.52 1309.81 2444.61 1306.37 2454.92 1306.63ZM2441.01 1309.58 2430.72 1308.82 2430.98 1305.39 2441.26 1306.16ZM2427.3 1308.57 2419.15 1307.96 2416.94 1307.7 2417.36 1304.28 2419.4 1304.53 2427.55 1305.14ZM2413.53 1307.28 2403.29 1306.03 2403.71 1302.62 2413.94 1303.87ZM2399.88 1305.62 2394.88 1305.01 2389.6 1304.12 2390.17 1300.73 2395.29 1301.6 2400.29 1302.21ZM2386.21 1303.55 2376.04 1301.84 2376.61 1298.45 2386.78 1300.16ZM2372.65 1301.26 2371.19 1301.02 2362.48 1299.13 2363.21 1295.77 2371.76 1297.63 2373.22 1297.87ZM2359.12 1298.41 2349.04 1296.23 2349.77 1292.87 2359.85 1295.05ZM2345.63 1295.36 2335.67 1292.71 2336.55 1289.38 2346.52 1292.04ZM2332.35 1291.82 2326.34 1290.22 2322.36 1288.95 2323.4 1285.68 2327.22 1286.9 2333.23 1288.5ZM2319.08 1287.9 2309.26 1284.76 2310.31 1281.49 2320.13 1284.63ZM2305.98 1283.72 2305.56 1283.58 2296.22 1280.19 2297.4 1276.96 2306.6 1280.31 2307.03 1280.44ZM2292.98 1278.92 2286.1 1276.2 2283.37 1275.03 2284.73 1271.87 2287.37 1273.01 2294.24 1275.73ZM2280.21 1273.67 2276.95 1272.27 2270.78 1269.38 2272.23 1266.27 2278.31 1269.11 2281.57 1270.51ZM2267.62 1267.88 2259.91 1263.96 2258.4 1263.12 2260.07 1260.12 2261.47 1260.89 2269.18 1264.82ZM2255.4 1261.45 2252.05 1259.59 2246.46 1256.19 2248.25 1253.25 2253.73 1256.59 2257.07 1258.45ZM2243.49 1254.31 2237.82 1250.5 2234.96 1248.37 2237.01 1245.62 2239.73 1247.65 2245.41 1251.45ZM2232.2 1246.32 2231.48 1245.79 2225.7 1240.98 2224.17 1239.55 2226.53 1237.04 2227.9 1238.34 2233.53 1243.03 2234.25 1243.56ZM2221.67 1237.19 2220.49 1236.08 2215.88 1231.09 2214.54 1229.4 2217.24 1227.27 2218.4 1228.76 2222.84 1233.58 2224.02 1234.69ZM2212.42 1226.69 2211.89 1226.02 2208.56 1220.88 2206.89 1217.61 2209.96 1216.06 2211.45 1219.02 2214.6 1223.9 2215.12 1224.57ZM2205.39 1214.3 2203.96 1210.4 2202.77 1205.08C2202.75 1205 2202.74 1204.92 2202.73 1204.84L2202.66 1203.91 2206.09 1203.65 2206.16 1204.58 2206.12 1204.34 2207.19 1209.22 2208.62 1213.12ZM2202.4 1200.48 2202.35 1199.73 2201.96 1194.62 2202 1194.86 2201.04 1190.53 2204.39 1189.79 2205.35 1194.11C2205.37 1194.19 2205.38 1194.28 2205.39 1194.36L2205.77 1199.47 2205.83 1200.22ZM2200.02 1187.49 2199.07 1184.89 2196.58 1180.03 2195.65 1178.61 2198.54 1176.74 2199.65 1178.47 2202.3 1183.71 2203.25 1186.31ZM2193.79 1175.72 2193.43 1175.17 2189.63 1170.34 2187.45 1167.98 2189.97 1165.65 2192.33 1168.21 2196.32 1173.3 2196.67 1173.85ZM2185.19 1165.54 2180.15 1160.79 2177.63 1158.7 2179.83 1156.06 2182.5 1158.29 2187.55 1163.04ZM2174.98 1156.5 2174.51 1156.11 2168.32 1151.5 2166.82 1150.5 2168.73 1147.65 2170.37 1148.74 2176.71 1153.47 2177.18 1153.86ZM2163.97 1148.59 2161.58 1146.99 2155.29 1143.16 2157.08 1140.22 2163.5 1144.13 2165.88 1145.73ZM2152.37 1141.48 2146.6 1138.28 2143.34 1136.62 2144.9 1133.56 2148.27 1135.27 2154.04 1138.48ZM2140.28 1135.06 2138.4 1134.1 2131.02 1130.65 2132.48 1127.54 2139.96 1131.04 2141.84 1132ZM2127.93 1129.28 2120.71 1126.17 2118.48 1125.29 2119.74 1122.09 2122.06 1123.01 2129.29 1126.12ZM2115.28 1124.03 2111.26 1122.44 2105.68 1120.41 2106.85 1117.18 2112.53 1119.24 2116.54 1120.83ZM2102.44 1119.23 2101.45 1118.87 2092.7 1116.07 2093.75 1112.8 2102.63 1115.64 2103.62 1116ZM2089.43 1115.03 2080.82 1112.27 2079.67 1111.97 2080.55 1108.65 2081.86 1109 2090.47 1111.75ZM2076.34 1111.09 2066.38 1108.43 2067.26 1105.11 2077.23 1107.76ZM2063.06 1107.55 2059.03 1106.48 2053.1 1105.2 2053.83 1101.84 2059.92 1103.16 2063.94 1104.23ZM2049.74 1104.47 2039.66 1102.29 2040.39 1098.93 2050.47 1101.11ZM2036.3 1101.56 2036.28 1101.56 2026.21 1099.86 2026.78 1096.47 2037.01 1098.2 2037.03 1098.2ZM2022.82 1099.29 2012.75 1097.59 2012.73 1097.59 2013.15 1094.18 2013.32 1094.2 2023.4 1095.9ZM2009.32 1097.17 1999.08 1095.93 1999.5 1092.51 2009.74 1093.76ZM1995.67 1095.51 1988.64 1094.66 1985.51 1094.45 1985.74 1091.02 1989.05 1091.24 1996.09 1092.1ZM1982.08 1094.22 1971.79 1093.54 1972.02 1090.11 1982.31 1090.79ZM1968.36 1093.31 1962.29 1092.9 1962.52 1089.47 1968.59 1089.88ZM1966.57 1105.07 1939.5 1090.5 1967.4 1077.58Z" fill="#000000" fill-rule="nonzero" fill-opacity="1"/><path d="M2463.11 1419.01 2452.8 1418.8 2452.87 1415.37 2463.18 1415.57ZM2449.3 1418.67 2439 1418.07 2439.2 1414.64 2449.5 1415.24ZM2435.52 1417.75 2426.62 1416.89 2425.19 1416.7 2425.65 1413.3 2426.95 1413.47 2435.85 1414.32ZM2421.79 1416.25 2414.55 1415.29 2411.52 1414.77 2412.09 1411.39 2415 1411.88 2422.24 1412.84ZM2408.13 1414.2 2402.57 1413.26 2397.93 1412.3 2398.63 1408.94 2403.15 1409.87 2408.71 1410.81ZM2394.57 1411.61 2390.72 1410.82 2384.46 1409.3 2385.27 1405.96 2391.41 1407.45 2395.26 1408.24ZM2381.12 1408.5 2379.01 1407.98 2371.11 1405.79 2372.03 1402.47 2379.82 1404.64 2381.93 1405.15ZM2367.79 1404.86 2367.46 1404.77 2357.92 1401.59 2359.01 1398.33 2368.38 1401.46 2368.72 1401.55ZM2354.66 1400.5 2345 1397.28 2344.78 1397.19 2346.08 1394.01 2346.09 1394.02 2355.75 1397.24ZM2341.6 1395.89 2332.06 1391.97 2333.36 1388.79 2342.9 1392.71ZM2328.88 1390.67 2323.46 1388.44 2319.35 1386.42 2320.87 1383.34 2324.77 1385.26 2330.18 1387.49ZM2316.27 1384.9 2307.02 1380.34 2308.54 1377.26 2317.79 1381.82ZM2303.94 1378.82 2303.06 1378.39 2294.84 1373.78 2296.52 1370.78 2304.58 1375.31 2305.46 1375.74ZM2291.82 1372.01 2283.96 1367.22 2282.98 1366.57 2284.88 1363.71 2285.75 1364.29 2293.61 1369.08ZM2280.12 1364.67 2274.99 1361.27 2271.56 1358.8 2273.57 1356.02 2276.89 1358.41 2282.02 1361.81ZM2268.77 1356.79 2266.41 1355.09 2260.53 1350.48 2262.65 1347.77 2268.42 1352.31 2270.78 1354.01ZM2257.78 1348.29 2250.57 1342.1 2249.92 1341.5 2252.27 1338.99 2252.8 1339.49 2260.02 1345.68ZM2247.42 1339.15 2243.34 1335.32 2240 1331.87 2242.47 1329.48 2245.7 1332.81 2249.77 1336.64ZM2237.61 1329.39 2236.62 1328.37 2230.72 1321.61 2233.31 1319.35 2239.09 1325.98 2240.08 1327.01ZM2228.53 1318.84 2224.75 1314 2222.32 1310.48 2225.16 1308.53 2227.46 1311.88 2231.24 1316.73ZM2220.38 1307.65 2219.66 1306.61 2215.17 1299.11 2214.92 1298.63 2217.98 1297.07 2218.12 1297.34 2222.49 1304.66 2223.21 1305.7ZM2213.36 1295.57 2211.29 1291.51 2209.01 1286.09 2212.18 1284.76 2214.36 1289.95 2216.42 1294.01ZM2207.71 1282.76 2205.5 1276.05 2204.71 1272.75 2208.06 1271.96 2208.77 1274.98 2210.97 1281.69ZM2203.92 1269.41 2203.64 1268.23 2202.5 1260.37 2202.42 1258.89 2205.85 1258.73 2205.9 1259.88 2206.98 1267.43 2207.26 1268.61ZM2202.25 1255.46 2202.1 1252.48 2201.75 1245.16 2205.18 1244.99 2205.54 1252.31 2205.68 1255.29ZM2201.31 1241.92 2200.63 1237.2 2199.38 1231.95 2202.72 1231.16 2204.04 1236.71 2204.72 1241.42ZM2198.54 1228.77 2196.36 1222.17 2195.11 1219.2 2198.28 1217.87 2199.63 1221.1 2201.8 1227.7ZM2193.78 1216.03 2193.23 1214.73 2189.47 1207.34 2189.28 1207.03 2192.23 1205.26 2192.53 1205.78 2196.4 1213.4 2196.95 1214.7ZM2187.51 1204.08 2185.09 1200.03 2181.98 1195.52 2184.81 1193.57 2188.04 1198.27 2190.46 1202.31ZM2180.08 1192.77 2174.58 1185.72 2173.74 1184.76 2176.33 1182.5 2177.29 1183.61 2182.79 1190.66ZM2171.48 1182.17 2168.5 1178.75 2164.55 1174.66 2167.02 1172.27 2171.09 1176.49 2174.07 1179.91ZM2162.16 1172.19 2161.89 1171.91 2154.78 1165.24 2154.77 1165.23 2157 1162.62 2157.14 1162.74 2164.36 1169.52 2164.63 1169.8ZM2152.16 1162.99 2147.2 1158.74 2144.28 1156.46 2146.4 1153.75 2149.44 1156.13 2154.39 1160.38ZM2141.58 1154.33 2139.16 1152.44 2133.34 1148.24 2135.35 1145.46 2141.29 1149.73 2143.7 1151.63ZM2130.61 1146.28 2122.01 1140.58 2123.91 1137.71 2132.51 1143.41ZM2119.14 1138.82 2112.59 1134.82 2110.34 1133.56 2112.02 1130.56 2114.38 1131.89 2120.93 1135.88ZM2107.34 1131.88 2102.98 1129.44 2098.29 1127.13 2099.81 1124.05 2104.66 1126.44 2109.02 1128.88ZM2095.21 1125.61 2085.96 1121.05 2087.48 1117.97 2096.73 1122.53ZM2082.88 1119.53 2082.77 1119.48 2073.45 1115.65 2074.75 1112.47 2084.29 1116.39 2084.4 1116.45ZM2070.27 1114.35 2061.45 1110.73 2060.82 1110.52 2061.91 1107.26 2062.75 1107.55 2071.57 1111.17ZM2057.56 1109.43 2047.78 1106.17 2048.86 1102.91 2058.65 1106.17ZM2044.52 1105.08 2039.18 1103.3 2034.75 1102.07 2035.67 1098.76 2040.26 1100.04 2045.6 1101.82ZM2031.43 1101.15 2027.77 1100.13 2021.5 1098.61 2022.31 1095.27 2028.69 1096.82 2032.36 1097.84ZM2018.16 1097.8 2016.18 1097.32 2008.13 1095.67 2008.83 1092.3 2016.98 1093.98 2018.97 1094.46ZM2004.77 1094.98 2004.44 1094.91 1994.66 1093.25 1995.23 1089.86 2005.13 1091.54 2005.46 1091.61ZM1991.32 1092.73 1981.1 1091.37 1981.55 1087.96 1991.78 1089.32ZM1977.77 1091.09 1967.49 1090.28 1967.76 1086.85 1978.04 1087.66ZM1971.35 1102.49 1944.5 1087.5 1972.6 1075.02Z" fill="#000000" fill-rule="nonzero" fill-opacity="1"/><path d="M2002.55 1114.5 2192.45 1114.5C2217.33 1114.5 2237.5 1139.12 2237.5 1169.5 2237.5 1199.88 2217.33 1224.5 2192.45 1224.5L2002.55 1224.5C1977.67 1224.5 1957.5 1199.88 1957.5 1169.5 1957.5 1139.12 1977.67 1114.5 2002.55 1114.5Z" stroke="#000000" stroke-width="4.58333" stroke-linecap="butt" stroke-linejoin="miter" stroke-miterlimit="8" stroke-opacity="1" fill="#FFFFFF" fill-rule="evenodd" fill-opacity="1"/><text fill="#000000" fill-opacity="1" font-family="IntelOne Display Regular,IntelOne Display Regular_MSFontService,sans-serif" font-style="normal" font-variant="normal" font-weight="400" font-stretch="normal" font-size="41" text-anchor="start" direction="ltr" writing-mode="lr-tb" unicode-bidi="normal" text-decoration="none" transform="matrix(1 0 0 1 2000.98 1182)">CRUD API</text><path d="M1566.9 894.5 1657.1 894.5C1668.92 894.5 1678.5 908.155 1678.5 925 1678.5 941.845 1668.92 955.5 1657.1 955.5L1566.9 955.5C1555.08 955.5 1545.5 941.845 1545.5 925 1545.5 908.155 1555.08 894.5 1566.9 894.5Z" stroke="#000000" stroke-width="4.58333" stroke-linecap="butt" stroke-linejoin="miter" stroke-miterlimit="8" stroke-opacity="1" fill="#7EC6FF" fill-rule="evenodd" fill-opacity="1"/><text fill="#000000" fill-opacity="1" font-family="IntelOne Display Regular,IntelOne Display Regular_MSFontService,sans-serif" font-style="normal" font-variant="normal" font-weight="400" font-stretch="normal" font-size="41" text-anchor="start" direction="ltr" writing-mode="lr-tb" unicode-bidi="normal" text-decoration="none" transform="matrix(1 0 0 1 1578.5 937)">API</text><rect x="1765.5" y="1583.5" width="300" height="88.9996" stroke="#000000" stroke-width="1.14583" stroke-linecap="butt" stroke-linejoin="miter" stroke-miterlimit="8" stroke-opacity="1" fill="#69BCFF" fill-opacity="0.831373"/><text fill="#000000" fill-opacity="1" font-family="IntelOne Display Regular,IntelOne Display Regular_MSFontService,sans-serif" font-style="normal" font-variant="normal" font-weight="400" font-stretch="normal" font-size="46" text-anchor="start" direction="ltr" writing-mode="lr-tb" unicode-bidi="normal" text-decoration="none" transform="matrix(1 0 0 1 1816.02 1642)">Tinkerbell</text><path d="M817.5 806.5 1147.5 806.5 1147.5 973.5 817.5 973.5Z" stroke="#000000" stroke-width="1.14583" stroke-linecap="butt" stroke-linejoin="miter" stroke-miterlimit="8" stroke-opacity="1" fill="#69BCFF" fill-rule="evenodd" fill-opacity="0.831373"/><text fill="#000000" fill-opacity="1" font-family="IntelOne Display Regular,IntelOne Display Regular_MSFontService,sans-serif" font-style="normal" font-variant="normal" font-weight="400" font-stretch="normal" font-size="46" text-anchor="start" direction="ltr" writing-mode="lr-tb" unicode-bidi="normal" text-decoration="none" transform="matrix(1 0 0 1 909.729 876)">Tenant </text><text fill="#000000" fill-opacity="1" font-family="IntelOne Display Regular,IntelOne Display Regular_MSFontService,sans-serif" font-style="normal" font-variant="normal" font-weight="400" font-stretch="normal" font-size="46" text-anchor="start" direction="ltr" writing-mode="lr-tb" unicode-bidi="normal" text-decoration="none" transform="matrix(1 0 0 1 887.958 931)">controller</text><path d="M1147.65 887.788 1153.79 888.33C1153.89 888.339 1153.98 888.355 1154.07 888.379L1158.09 889.421 1157.22 892.748 1153.21 891.706 1153.49 891.755 1147.35 891.212ZM1161.59 890.547 1166.4 892.592 1170.98 895.277 1169.24 898.238 1165.06 895.755 1160.25 893.71ZM1174 897.298 1178.28 900.535 1182.03 904.017 1179.69 906.533 1176.21 903.276 1171.93 900.039ZM1184.6 906.533 1189.08 911.538 1191.33 914.521 1188.59 916.591 1186.51 913.83 1182.04 908.826ZM1193.4 917.265 1193.96 918.008 1198.45 925.031 1199.07 926.182 1196.05 927.811 1195.55 926.88 1191.22 920.078 1190.66 919.335ZM1200.7 929.21 1202.49 932.538 1205.22 938.612 1202.08 940.017 1199.47 934.167 1197.68 930.838ZM1206.58 941.902 1209.06 948.736 1209.93 951.779 1206.63 952.718 1205.83 949.912 1203.35 943.078ZM1210.87 955.086 1211.5 957.29 1213.14 965.273 1209.77 965.963 1208.19 958.229 1207.56 956.025ZM1213.64 968.806 1214.41 974.972 1214.6 979.207 1211.17 979.353 1211 975.398 1210.23 969.232ZM1214.75 982.641 1214.8 983.963 1215.18 992.815 1211.77 993.229 1211.74 992.961 1211.37 984.109 1211.31 982.787ZM1215.61 996.214 1216.26 1001.46 1217.25 1006.25 1213.88 1006.94 1212.85 1001.88 1212.2 996.64ZM1217.94 1009.62 1218.01 1009.97 1220.37 1018.28 1220.74 1019.28 1217.51 1020.45 1217.07 1019.22 1214.64 1010.66 1214.57 1010.31ZM1221.92 1022.51 1223.31 1026.32 1225.82 1031.91 1222.68 1033.32 1220.08 1027.5 1218.69 1023.68ZM1227.24 1034.9 1230.68 1041.3 1232.26 1043.76 1229.36 1045.61 1227.66 1042.93 1224.21 1036.53ZM1234.11 1046.66 1235.03 1048.11 1239.75 1054.35 1240.08 1054.71 1237.52 1057.01 1237 1056.42 1232.13 1049.95 1231.21 1048.51ZM1242.37 1057.27 1244.79 1059.98 1249.57 1064.42 1247.23 1066.94 1242.23 1062.27 1239.81 1059.57ZM1252.14 1065.98 1257.98 1069.2 1256.32 1072.21 1250.48 1068.99ZM1257.57 1056.21 1278.67 1078.57 1248.12 1082.04Z" fill="#000000" fill-rule="nonzero" fill-opacity="1"/><text fill="#000000" fill-opacity="1" font-family="IntelOne Display Regular,IntelOne Display Regular_MSFontService,sans-serif" font-style="normal" font-variant="normal" font-weight="400" font-stretch="normal" font-size="48" text-anchor="start" direction="ltr" writing-mode="lr-tb" unicode-bidi="normal" text-decoration="none" transform="matrix(1 0 0 1 3293.07 1086)">Edge Node</text><text fill="#000000" fill-opacity="1" font-family="IntelOne Display Regular,IntelOne Display Regular_MSFontService,sans-serif" font-style="normal" font-variant="normal" font-weight="400" font-stretch="normal" font-size="48" text-anchor="start" direction="ltr" writing-mode="lr-tb" unicode-bidi="normal" text-decoration="none" transform="matrix(1 0 0 1 3335.47 1143)">Agents</text><path d="M22.9166-2.29163 210.169-2.29134 210.169 2.29199 22.9166 2.2917ZM27.5 13.75 0 0 27.5-13.75ZM205.586-13.7497 233.086 0.000360892 205.586 13.7503Z" fill="#000000" fill-rule="nonzero" fill-opacity="1" transform="matrix(1 0 0 -1 3044.5 827.5)"/><rect x="760.5" y="1434.5" width="372" height="166" stroke="#000000" stroke-width="1.14583" stroke-linecap="butt" stroke-linejoin="miter" stroke-miterlimit="8" stroke-opacity="1" fill="#7F7F7F" fill-opacity="0.501961"/><text fill="#000000" fill-opacity="1" font-family="IntelOne Display Regular,IntelOne Display Regular_MSFontService,sans-serif" font-style="normal" font-variant="normal" font-weight="400" font-stretch="normal" font-size="46" text-anchor="start" direction="ltr" writing-mode="lr-tb" unicode-bidi="normal" text-decoration="none" transform="matrix(1 0 0 1 814.719 1504)">Observability</text><text fill="#000000" fill-opacity="1" font-family="IntelOne Display Regular,IntelOne Display Regular_MSFontService,sans-serif" font-style="normal" font-variant="normal" font-weight="400" font-stretch="normal" font-size="46" text-anchor="start" direction="ltr" writing-mode="lr-tb" unicode-bidi="normal" text-decoration="none" transform="matrix(1 0 0 1 862.546 1559)">Platform</text><rect x="797.5" y="538.5" width="371" height="167" stroke="#000000" stroke-width="1.14583" stroke-linecap="butt" stroke-linejoin="miter" stroke-miterlimit="8" stroke-opacity="1" fill="#7F7F7F" fill-opacity="0.501961"/><text fill="#000000" fill-opacity="1" font-family="IntelOne Display Regular,IntelOne Display Regular_MSFontService,sans-serif" font-style="normal" font-variant="normal" font-weight="400" font-stretch="normal" font-size="46" text-anchor="start" direction="ltr" writing-mode="lr-tb" unicode-bidi="normal" text-decoration="none" transform="matrix(1 0 0 1 853.584 609)">Multitenancy</text><text fill="#000000" fill-opacity="1" font-family="IntelOne Display Regular,IntelOne Display Regular_MSFontService,sans-serif" font-style="normal" font-variant="normal" font-weight="400" font-stretch="normal" font-size="46" text-anchor="start" direction="ltr" writing-mode="lr-tb" unicode-bidi="normal" text-decoration="none" transform="matrix(1 0 0 1 898.844 664)">Platform</text><path d="M948.792 1301.42 948.792 1315.17 944.209 1315.17 944.209 1301.42ZM948.792 1319.75 948.792 1333.5 944.209 1333.5 944.209 1319.75ZM948.792 1338.08 948.792 1351.83 944.209 1351.83 944.209 1338.08ZM948.792 1356.42 948.792 1370.17 944.208 1370.17 944.208 1356.42ZM948.792 1374.75 948.792 1388.5 944.208 1388.5 944.208 1374.75ZM948.792 1393.08 948.792 1406.83 944.208 1406.83 944.208 1393.08ZM932.75 1306 946.5 1278.5 960.25 1306ZM960.25 1406.61 946.5 1434.11 932.75 1406.61Z" fill="#000000" fill-rule="nonzero" fill-opacity="1"/><path d="M984.792 728.417 984.792 742.167 980.209 742.167 980.209 728.417ZM984.792 746.75 984.792 756.199C984.792 757.465 983.766 758.491 982.5 758.491L982.5 758.491 984.792 756.199 984.792 760.5 980.208 760.5 980.208 756.199C980.208 754.933 981.234 753.907 982.5 753.907L982.5 753.907 980.209 756.199 980.209 746.75ZM984.792 765.083 984.792 778.833 980.208 778.833 980.208 765.083ZM984.792 783.416 984.792 783.981 980.208 783.981 980.208 783.416ZM968.75 733 982.5 705.5 996.25 733ZM996.25 779.398 982.5 806.898 968.75 779.398Z" fill="#000000" fill-rule="nonzero" fill-opacity="1"/><path d="M0.0434829-1.7182 10.3527-1.4573 10.2657 1.9791-0.0434829 1.7182ZM13.8683-1.27114 23.637-0.544838 24.2305-0.474432 23.8147 2.93783 23.3822 2.8832 13.6134 2.1569ZM27.6428-0.0586228 35.2415 0.867341 37.9403 1.32139 37.3677 4.71087 34.8257 4.2796 27.227 3.35364ZM41.3298 1.89396 46.5669 2.77865 51.5324 3.85289 50.8043 7.2124 45.9944 6.16813 40.7572 5.28344ZM54.8919 4.58096 57.5225 5.15106 64.9649 7.13311 64.0794 10.4546 56.7944 8.51057 54.1638 7.94047ZM68.3639 8.05562 77.9612 11.1288 78.2673 11.2425 77.0465 14.4559 76.9129 14.4026 67.3156 11.3294ZM81.4807 12.4633 87.2635 14.6602 91.1216 16.389 89.7136 19.525 86.0428 17.8736 80.2599 15.6767ZM94.2575 17.797 95.8347 18.5051 103.515 22.5914 101.899 25.6254 94.4268 21.641 92.8496 20.9329ZM106.532 24.5077 110.427 27.0002 115.034 30.6149 112.908 33.3162 108.575 29.8957 104.679 27.4032ZM117.74 33.0534 121.031 36.3759C121.095 36.4411 121.155 36.5115 121.208 36.5862L124.485 41.1722 121.688 43.1705 118.411 38.5845 118.588 38.7948 115.298 35.4723ZM126.074 44.6138 126.893 46.4935C126.954 46.6322 126.996 46.7783 127.018 46.928L127.741 51.8017 128.231 55.1005 124.83 55.6051 124.341 52.3062 123.618 47.4325 123.742 47.8671 122.923 45.9874ZM129.077 57.9325 130.448 61.0764 130.27 60.764 133.671 65.5233 133.493 65.313 134.221 66.0475 131.778 68.4664 131.051 67.732C130.986 67.6666 130.927 67.5964 130.874 67.5216L127.473 62.7623C127.404 62.6647 127.344 62.56 127.296 62.45L125.926 59.3061ZM136.64 68.4899 138.094 69.9579 143.644 74.3092 144.334 74.7414 142.482 77.637 141.518 77.0105 135.651 72.3769 134.197 70.9088ZM147.23 76.5941 150.231 78.5139 156.07 81.6181 154.454 84.6521 148.378 81.4094 145.377 79.4896ZM159.045 83.0909 166.133 86.2729 168.417 87.1375 167.196 90.3509 164.725 89.4088 157.637 86.2268ZM171.63 88.3582 175.255 89.7353 181.297 91.6675 180.249 94.9413 174.034 92.9488 170.41 91.5717ZM184.571 92.7158 185.031 92.8632 194.447 95.3712 193.562 98.6927 183.983 96.137 183.523 95.9896ZM197.718 96.1238 206.165 97.9546 207.733 98.2176 207.161 101.607 205.437 101.314 196.99 99.4833ZM211.123 98.7901 217.335 99.8395 221.21 100.218 220.873 103.638 216.762 103.229 210.55 102.18ZM224.631 100.555 229.375 101.023 229.038 104.444 224.294 103.976ZM225.456 88.7331 252.082 104.108 223.807 116.184Z" fill="#000000" fill-rule="nonzero" fill-opacity="1" transform="matrix(-1 1.22465e-16 1.22465e-16 1 3292.58 1099.5)"/><path d="M3292.14 1101.5 3281.83 1101.21 3281.93 1097.77 3292.24 1098.07ZM3278.31 1101 3268.76 1100.2 3267.95 1100.09 3268.41 1096.69 3269.05 1096.78 3278.59 1097.57ZM3264.54 1099.63 3257.26 1098.64 3254.26 1098.07 3254.9 1094.7 3257.72 1095.23 3265.01 1096.22ZM3250.88 1097.44 3246.03 1096.52 3240.72 1095.23 3241.53 1091.89 3246.67 1093.14 3251.52 1094.06ZM3237.38 1094.43 3235.17 1093.89 3227.38 1091.57 3228.36 1088.28 3235.98 1090.55 3238.19 1091.08ZM3224.01 1090.52 3214.91 1087.27 3214.22 1086.98 3215.57 1083.81 3216.07 1084.03 3225.17 1087.29ZM3211.06 1085.63 3205.69 1083.35 3201.59 1081.3 3203.13 1078.23 3207.03 1080.19 3212.4 1082.47ZM3198.51 1079.76 3197.19 1079.09 3189.51 1074.52 3189.37 1074.43 3191.27 1071.57 3198.73 1076.02 3200.06 1076.68ZM3186.58 1072.43 3182.73 1069.68 3178.4 1065.89 3180.68 1063.31 3184.73 1066.88 3188.58 1069.64ZM3175.8 1063.33 3172.23 1059.3C3172.17 1059.24 3172.12 1059.16 3172.07 1059.09L3169.42 1054.94 3172.31 1053.09 3174.97 1057.24 3174.8 1057.02 3178.38 1061.06ZM3167.78 1051.55 3166.46 1048.16C3166.41 1048.03 3166.38 1047.9 3166.36 1047.76L3165.64 1042.37 3165.48 1041.15 3168.89 1040.7 3169.05 1041.92 3169.77 1047.31 3169.66 1046.91 3170.98 1050.3ZM3165.03 1037.74 3164.93 1036.97 3165.03 1037.37 3162.94 1032.01 3163.09 1032.32 3161.05 1029.12 3163.95 1027.27 3165.99 1030.46C3166.05 1030.56 3166.1 1030.66 3166.14 1030.77L3168.23 1036.12C3168.28 1036.25 3168.31 1036.38 3168.33 1036.52L3168.44 1037.29ZM3159.24 1026.53 3155.33 1022.12 3152.17 1019.35 3154.44 1016.77 3157.9 1019.84 3161.82 1024.25ZM3149.7 1017.21 3143.3 1012.64 3141.32 1011.46 3143.08 1008.51 3145.3 1009.84 3151.7 1014.42ZM3138.37 1009.71 3135.85 1008.2 3129.36 1004.95 3130.91 1001.88 3137.61 1005.25 3140.13 1006.75ZM3126.35 1003.54 3118.53 1000.22 3116.92 999.643 3118.07 996.406 3119.87 997.054 3127.7 1000.38ZM3113.68 998.484 3108.85 996.757 3103.97 995.304 3104.95 992.01 3110.01 993.521 3114.84 995.248ZM3100.68 994.322 3098.63 993.711 3090.77 991.81 3091.58 988.469 3099.61 990.417 3101.66 991.028ZM3087.51 991.045 3077.37 989.132 3078.01 985.754 3088.15 987.667ZM3074.09 988.738 3065.18 987.759 3065.55 984.342 3074.47 985.321ZM3069.01 1000.08 3042.5 984.5 3070.87 972.642Z" fill="#000000" fill-rule="nonzero" fill-opacity="1"/><path d="M3292.58 1101.31 3282.26 1101.3 3282.27 1097.86 3292.58 1097.88ZM3278.83 1101.29 3269.25 1101.28 3268.51 1101.28 3268.52 1097.84 3269.26 1097.84 3278.83 1097.86ZM3265.07 1101.26 3254.76 1101.22 3254.77 1097.78 3265.09 1097.82ZM3251.32 1101.2 3246.66 1101.18 3241.01 1101.14 3241.03 1097.71 3246.67 1097.74 3251.34 1097.76ZM3237.57 1101.12 3235.86 1101.11 3227.25 1101.04 3227.28 1097.6 3235.89 1097.67 3237.59 1097.68ZM3223.81 1101.01 3215.74 1100.93 3213.5 1100.91 3213.54 1097.47 3215.77 1097.5 3223.85 1097.57ZM3210.06 1100.87 3206.6 1100.83 3199.75 1100.74 3199.79 1097.3 3206.63 1097.39 3210.1 1097.43ZM3196.3 1100.69 3190.59 1100.6 3185.99 1100.51 3186.05 1097.07 3190.65 1097.16 3196.36 1097.25ZM3182.54 1100.44 3178.24 1100.33 3173.67 1100.2 3172.2 1100.13 3172.35 1096.7 3173.77 1096.76 3178.33 1096.9 3182.63 1097ZM3168.73 1099.95 3168.14 1099.91 3167.2 1099.73 3166.48 1099.59 3164.61 1099.47 3161.29 1099.33 3158.52 1099.25 3158.62 1095.82 3161.43 1095.9 3164.85 1096.04 3167.16 1096.22 3167.88 1096.36 3168.38 1096.48 3168.96 1096.52ZM3155.09 1099.16 3151.09 1099.06 3144.79 1098.94 3144.86 1095.51 3151.17 1095.63 3155.18 1095.72ZM3141.36 1098.89 3136.85 1098.82 3131.05 1098.74 3131.1 1095.3 3136.9 1095.38 3141.42 1095.45ZM3127.62 1098.69 3119.3 1098.6 3117.31 1098.58 3117.34 1095.14 3119.34 1095.16 3127.66 1095.26ZM3113.87 1098.55 3109.52 1098.5 3103.56 1098.46 3103.59 1095.02 3109.55 1095.07 3113.91 1095.11ZM3100.13 1098.43 3099.19 1098.42 3089.82 1098.36 3089.84 1094.92 3099.22 1094.98 3100.15 1094.99ZM3086.38 1098.34 3076.07 1098.3 3076.09 1094.87 3086.4 1094.91ZM3072.63 1098.29 3065.41 1098.26 3065.42 1094.83 3072.65 1094.85ZM3069.97 1110.3 3042.5 1096.5 3070.03 1082.8Z" fill="#000000" fill-rule="nonzero" fill-opacity="1"/><rect x="2092.5" y="1583.5" width="300" height="88.9996" stroke="#000000" stroke-width="1.14583" stroke-linecap="butt" stroke-linejoin="miter" stroke-miterlimit="8" stroke-opacity="1" fill="#69BCFF" fill-opacity="0.831373"/><text fill="#000000" fill-opacity="1" font-family="IntelOne Display Regular,IntelOne Display Regular_MSFontService,sans-serif" font-style="normal" font-variant="normal" font-weight="400" font-stretch="normal" font-size="46" text-anchor="start" direction="ltr" writing-mode="lr-tb" unicode-bidi="normal" text-decoration="none" transform="matrix(1 0 0 1 2174.81 1642)">DKAM</text><rect x="1478.5" y="289.5" width="257" height="89" stroke="#000000" stroke-width="1.14583" stroke-linecap="butt" stroke-linejoin="miter" stroke-miterlimit="8" stroke-opacity="1" fill="#69BCFF" fill-opacity="0.831373"/><text fill="#000000" fill-opacity="1" font-family="IntelOne Display Regular,IntelOne Display Regular_MSFontService,sans-serif" font-style="normal" font-variant="normal" font-weight="400" font-stretch="normal" font-size="46" text-anchor="start" direction="ltr" writing-mode="lr-tb" unicode-bidi="normal" text-decoration="none" transform="matrix(1 0 0 1 1570.97 348)">BIT</text><path d="M0.0883914-1.71648 10.075-1.20221 10.5529-1.13838 10.0386 2.26045 9.89825 2.23075-0.0883914 1.71648ZM13.9517-0.624174 20.1523 0.313902 24.2314 1.31772 23.4041 4.65418 19.6381 3.71273 13.4375 2.77465ZM27.5678 2.14503 30.0611 2.76325 37.5293 5.32331 36.4119 8.57413 29.2338 6.09971 26.7405 5.48149ZM40.8807 6.5811 49.0642 10.1899 50.3932 10.9043 48.7541 13.9259 47.6772 13.3352 39.4936 9.72635ZM53.4148 12.5434 58.0051 15.0334 62.3887 17.8831 60.5121 20.7631 56.366 18.055 51.7757 15.5649ZM65.2688 19.7597 66.4699 20.5423 73.6075 26.0528 71.5051 28.7724 64.5933 23.4224 63.3922 22.6397ZM76.3052 28.4007 81.6643 33.2966 83.839 35.6444 81.3126 37.9754 79.3458 35.8345 73.9867 30.9385ZM86.17 38.1709 88.2394 40.4138 92.7621 46.2905 90.036 48.3844 85.713 42.7448 83.6435 40.5018ZM94.843 49.2281 98.9545 55.8126 100.158 58.2633 97.0671 59.7677 96.0388 57.6333 91.9272 51.0488ZM101.662 61.3542 102.935 63.9693 105.464 71.1381 102.221 72.2768 99.8443 65.4737 98.5715 62.8586ZM106.399 74.6647 107.732 80.8837 108.053 85.0607 104.624 85.3107 104.37 81.6038 103.038 75.3848ZM108.303 88.4891 108.377 89.5112 108.989 97.9036 109.138 98.5222 105.777 99.2422 105.561 98.1536 104.949 89.7612 104.874 88.7391ZM109.859 101.883 110.739 105.995 112.704 111.548 109.46 112.687 107.378 106.715 106.497 102.603ZM113.858 114.571 117.375 121.797 118.493 123.569 115.577 125.39 114.284 123.302 110.767 116.075ZM120.313 126.485 122.118 129.375 126.229 134.715 123.503 136.809 119.202 131.196 117.397 128.306ZM128.293 137.264 134.084 143.541 135.288 144.633 132.97 147.171 131.558 145.872 125.766 139.595ZM137.826 146.951 141.154 149.992 145.639 153.451 143.536 156.171 138.836 152.53 135.508 149.489ZM148.358 155.553 148.846 155.93 156.857 161.143 154.98 164.023 146.743 158.65 146.256 158.273ZM159.749 162.73 165.775 165.999 168.812 167.332 167.425 170.477 164.136 169.02 158.11 165.752ZM171.957 168.719 174.854 169.996 181.478 172.267 180.36 175.518 173.467 173.142 170.57 171.864ZM184.491 173.24 190.934 174.386 190.332 177.771 183.889 176.624ZM188.011 161.824 213.326 179.272 184.178 189.056Z" fill="#000000" fill-rule="nonzero" fill-opacity="1" transform="matrix(1.83697e-16 1 1 -1.83697e-16 1607.5 378.5)"/><path d="M1946.2 365.573 1945.76 375.876 1942.33 375.73 1942.77 365.426ZM1945.35 379.43 1944.42 386.857 1943.83 389.758 1940.46 389.066 1941.01 386.429 1941.94 379.002ZM1943.14 393.125 1942.27 397.354 1940.59 403.245 1937.29 402.302 1938.9 396.661 1939.77 392.433ZM1939.65 406.55 1939.35 407.594 1936.14 416.379 1932.92 415.199 1936.05 406.651 1936.34 405.608ZM1934.77 419.661 1931.48 426.978 1930.33 429.104 1927.31 427.47 1928.34 425.568 1931.63 418.251ZM1928.7 432.129 1926.63 435.96 1923.35 441.086 1920.45 439.231 1923.6 434.326 1925.67 430.495ZM1921.49 443.98 1921.25 444.359 1915.4 452.094 1915.11 452.426 1912.55 450.128 1912.66 450.018 1918.36 442.504 1918.6 442.125ZM1912.81 454.982 1909.12 459.082 1905.49 462.456 1903.16 459.934 1906.57 456.784 1910.25 452.685ZM1902.97 464.792 1902.48 465.241 1895.53 470.487 1894.41 471.162 1892.67 468.197 1893.47 467.741 1900.15 462.719 1900.63 462.27ZM1891.44 472.902 1888.32 474.733 1881.96 477.444 1880.62 474.279 1886.58 471.769 1889.7 469.937ZM1878.44 478.546 1873.32 479.869C1873.23 479.893 1873.13 479.909 1873.04 479.917L1868.04 480.357 1867.74 476.933 1872.74 476.493 1872.46 476.541 1877.58 475.218ZM1864.61 480.658 1858.25 481.218 1858.53 481.17 1854.73 482.151 1853.87 478.823 1857.67 477.842C1857.76 477.818 1857.85 477.802 1857.95 477.794L1864.31 477.234ZM1851.4 483.011 1851.19 483.065 1851.43 482.984 1844.21 486.042 1842.47 487.081 1840.73 484.116 1842.87 482.877 1850.09 479.819C1850.17 479.786 1850.25 479.758 1850.33 479.737L1850.54 479.683ZM1839.5 488.821 1837.36 490.079 1831.27 494.678 1829.2 491.932 1835.62 487.115 1837.76 485.857ZM1828.84 496.847 1824.31 501.038 1821.65 504.009 1819.09 501.711 1821.97 498.516 1826.5 494.325ZM1819.35 506.566 1818.24 507.803 1813.11 514.586 1810.37 512.51 1815.68 505.506 1816.8 504.268ZM1811.27 517.328 1807.32 523.495 1805.96 526.013 1802.94 524.379 1804.43 521.64 1808.38 515.473ZM1804.33 529.037 1802.59 532.254 1799.92 538.212 1796.78 536.802 1799.57 530.62 1801.31 527.403ZM1798.51 541.347 1798.43 541.51 1795 550.913 1791.77 549.732 1795.3 540.1 1795.37 539.937ZM1794.08 554.093 1792.06 561.174 1791.65 563.883 1788.25 563.351 1788.75 560.232 1790.77 553.151ZM1791.12 567.279 1790.74 569.701 1787.34 569.169 1787.72 566.747ZM1803.21 566.403 1786.5 592.211 1775.88 563.357Z" fill="#000000" fill-rule="nonzero" fill-opacity="1"/><path d="M1616 509C1616 491.879 1629.88 478 1647 478L1929 478C1946.12 478 1960 491.879 1960 509 1960 526.121 1946.12 540 1929 540L1647 540C1629.88 540 1616 526.121 1616 509Z" fill="#FEC91B" fill-rule="evenodd" fill-opacity="1"/><text fill="#000000" fill-opacity="1" font-family="IntelOne Display Regular,IntelOne Display Regular_MSFontService,sans-serif" font-style="normal" font-variant="normal" font-weight="400" font-stretch="normal" font-size="48" text-anchor="start" direction="ltr" writing-mode="lr-tb" unicode-bidi="normal" text-decoration="none" transform="matrix(1 0 0 1 1686.94 525)">NB REST</text><rect x="3331.5" y="683.5" width="239" height="118" stroke="#000000" stroke-width="1.14583" stroke-linecap="butt" stroke-linejoin="miter" stroke-miterlimit="8" stroke-opacity="1" fill="#8BAE46" fill-opacity="0.831373"/><text fill="#000000" fill-opacity="1" font-family="IntelOne Display Regular,IntelOne Display Regular_MSFontService,sans-serif" font-style="normal" font-variant="normal" font-weight="400" font-stretch="normal" font-size="46" text-anchor="start" direction="ltr" writing-mode="lr-tb" unicode-bidi="normal" text-decoration="none" transform="matrix(1 0 0 1 3405.69 756)">RPS</text><rect x="3291.5" y="756.5" width="240" height="118" stroke="#000000" stroke-width="1.14583" stroke-linecap="butt" stroke-linejoin="miter" stroke-miterlimit="8" stroke-opacity="1" fill="#8BAE46" fill-opacity="0.831373"/><text fill="#000000" fill-opacity="1" font-family="IntelOne Display Regular,IntelOne Display Regular_MSFontService,sans-serif" font-style="normal" font-variant="normal" font-weight="400" font-stretch="normal" font-size="46" text-anchor="start" direction="ltr" writing-mode="lr-tb" unicode-bidi="normal" text-decoration="none" transform="matrix(1 0 0 1 3362.61 830)">MPS</text><path d="M3273.15 1105.17 3262.86 1104.53 3263.07 1101.1 3273.36 1101.74ZM3259.26 1103.95 3251.24 1102.48 3248.99 1101.82 3249.98 1098.53 3251.86 1099.1 3259.88 1100.57ZM3245.7 1100.83 3240.41 1099.24 3235.82 1097.34 3237.14 1094.17 3241.4 1095.95 3246.69 1097.54ZM3232.65 1096.02 3229.86 1094.86 3223.28 1091.35 3224.9 1088.32 3231.18 1091.69 3233.97 1092.85ZM3220.25 1089.73 3219.67 1089.42 3211.47 1084.04 3213.35 1081.17 3221.29 1086.39 3221.87 1086.7ZM3208.55 1081.95 3200.69 1075.75 3200.36 1075.45 3202.71 1072.94 3202.82 1073.05 3210.68 1079.25ZM3197.86 1073.1 3192.07 1067.68 3190.37 1065.81 3192.92 1063.5 3194.42 1065.18 3200.2 1070.59ZM3188.06 1063.26 3184.14 1058.92 3181.35 1055.26 3184.08 1053.17 3186.69 1056.61 3190.62 1060.95ZM3179.26 1052.52 3176.99 1049.54 3173.39 1043.88 3176.3 1042.04 3179.73 1047.45 3182 1050.44ZM3171.55 1040.97 3170.7 1039.63 3166.63 1031.74 3169.68 1030.17 3173.6 1037.78 3174.46 1039.13ZM3165.04 1028.52 3161.2 1018.95 3164.39 1017.67 3168.23 1027.23ZM3160.14 1015.5 3157.84 1007.55 3157.44 1005.36 3160.83 1004.77 3161.14 1006.6 3163.45 1014.54ZM3156.85 1001.98 3155.85 996.369 3155.55 991.566 3158.98 991.359 3159.24 995.77 3160.23 1001.38ZM3155.35 988.135 3155.16 985.08 3154.73 977.841 3158.16 977.634 3158.59 984.874 3158.78 987.928ZM3154.52 974.41 3154.5 973.987 3152.8 964.445 3156.18 963.846 3157.93 973.781 3157.95 974.203ZM3152.02 961.291 3149.47 952.524 3149.09 951.587 3152.28 950.306 3152.78 951.567 3155.32 960.334ZM3147.81 948.398 3145.28 942.115 3143.73 939.114 3146.78 937.539 3148.47 940.833 3151 947.116ZM3142.15 936.058 3140.08 932.036 3137.06 927.281 3139.96 925.44 3143.13 930.461 3145.21 934.483ZM3135.22 924.378 3133.95 922.378 3129.22 916.179 3131.95 914.096 3136.85 920.537 3138.12 922.537ZM3127.13 913.444 3126.97 913.229 3120.33 905.889 3122.88 903.584 3129.71 911.146 3129.87 911.362ZM3118.02 903.546 3110.83 896.81 3110.58 896.621 3112.71 893.923 3113.18 894.301 3120.37 901.037ZM3107.88 894.491 3101.83 889.716 3099.77 888.373 3101.66 885.5 3103.96 887.018 3110.01 891.793ZM3096.9 886.485 3092.33 883.484 3088.19 881.279 3089.81 878.247 3094.22 880.611 3098.79 883.612ZM3085.16 879.659 3082.42 878.198 3075.92 875.497 3077.24 872.323 3084.04 875.166 3086.78 876.627ZM3072.74 874.175 3072.19 873.944 3072.46 874.031 3063 871.817 3063.78 868.47 3073.24 870.684C3073.33 870.705 3073.42 870.734 3073.51 870.771L3074.06 871.002ZM3065.51 884.381 3040.5 866.5 3069.81 857.219Z" fill="#000000" fill-rule="nonzero" fill-opacity="1"/><path d="M3168.5 1237C3146.68 1237 3129 1219.32 3129 1197.5L3129 1014.5C3129 992.684 3146.68 975 3168.5 975 3190.32 975 3208 992.684 3208 1014.5L3208 1197.5C3208 1219.32 3190.32 1237 3168.5 1237Z" fill="#FEC91B" fill-rule="evenodd" fill-opacity="1"/><text fill="#000000" fill-opacity="1" font-family="IntelOne Display Regular,IntelOne Display Regular_MSFontService,sans-serif" font-style="normal" font-variant="normal" font-weight="400" font-stretch="normal" font-size="48" text-anchor="start" direction="ltr" writing-mode="lr-tb" unicode-bidi="normal" text-decoration="none" transform="matrix(-1.83697e-16 -1 1 -1.83697e-16 3184.77 1205)">SB </text><text fill="#000000" fill-opacity="1" font-family="IntelOne Display Regular,IntelOne Display Regular_MSFontService,sans-serif" font-style="normal" font-variant="normal" font-weight="400" font-stretch="normal" font-size="48" text-anchor="start" direction="ltr" writing-mode="lr-tb" unicode-bidi="normal" text-decoration="none" transform="matrix(-1.83697e-16 -1 1 -1.83697e-16 3184.77 1133)">gRPC</text><path d="M3168.5 959C3144.48 959 3125 939.524 3125 915.5L3125 747.5C3125 723.475 3144.48 704 3168.5 704L3168.5 704C3192.52 704 3212 723.475 3212 747.5L3212 915.5C3212 939.524 3192.52 959 3168.5 959Z" fill="#FEC91B" fill-rule="evenodd" fill-opacity="1"/><text fill="#000000" fill-opacity="1" font-family="IntelOne Display Regular,IntelOne Display Regular_MSFontService,sans-serif" font-style="normal" font-variant="normal" font-weight="400" font-stretch="normal" font-size="48" text-anchor="start" direction="ltr" writing-mode="lr-tb" unicode-bidi="normal" text-decoration="none" transform="matrix(-1.83697e-16 -1 1 -1.83697e-16 3184.77 906)">SB API</text></g></g></svg>