<svg width="1522" height="1311" xmlns="http://www.w3.org/2000/svg" xmlns:xlink="http://www.w3.org/1999/xlink" xml:space="preserve" overflow="hidden"><defs><linearGradient x1="3210" y1="806" x2="3210" y2="1136" gradientUnits="userSpaceOnUse" spreadMethod="reflect" id="fill0"><stop offset="0" stop-color="#C4AFCD" stop-opacity="1"/><stop offset="0.5" stop-color="#BAA2C4" stop-opacity="1"/><stop offset="1" stop-color="#B092BE" stop-opacity="1"/></linearGradient></defs><g transform="translate(-2438 -449)"><g><rect x="2463" y="454" width="1494" height="282" stroke="#0068B5" stroke-width="2.29167" stroke-linecap="butt" stroke-linejoin="miter" stroke-miterlimit="8" stroke-opacity="1" fill="#B9D6E5" fill-opacity="1"/><text fill="#000000" fill-opacity="1" font-family="IntelOne Display Regular,IntelOne Display Regular_MSFontService,sans-serif" font-style="normal" font-variant="normal" font-weight="400" font-stretch="normal" font-size="64" text-anchor="start" direction="ltr" writing-mode="lr-tb" unicode-bidi="normal" text-decoration="none" transform="matrix(1 0 0 1 2479.96 530)">EMF </text><text fill="#000000" fill-opacity="1" font-family="IntelOne Display Regular,IntelOne Display Regular_MSFontService,sans-serif" font-style="normal" font-variant="normal" font-weight="400" font-stretch="normal" font-size="64" text-anchor="start" direction="ltr" writing-mode="lr-tb" unicode-bidi="normal" text-decoration="none" transform="matrix(1 0 0 1 2623.76 530)">Fleet management</text><rect x="2463" y="806" width="1494" height="330" stroke="#8F5DA2" stroke-width="2.29167" stroke-linecap="butt" stroke-linejoin="miter" stroke-miterlimit="8" stroke-opacity="1" fill="url(#fill0)"/><text fill="#000000" fill-opacity="1" font-family="IntelOne Display Regular,IntelOne Display Regular_MSFontService,sans-serif" font-style="normal" font-variant="normal" font-weight="400" font-stretch="normal" font-size="64" text-anchor="start" direction="ltr" writing-mode="lr-tb" unicode-bidi="normal" text-decoration="none" transform="matrix(1 0 0 1 2479.96 882)">Intel® AMT Device management toolkit</text><rect x="2463" y="1379" width="1494" height="357" stroke="#0068B5" stroke-width="2.29167" stroke-linecap="butt" stroke-linejoin="miter" stroke-miterlimit="8" stroke-opacity="1" fill="#B9D6E5" fill-opacity="1"/><text fill="#000000" fill-opacity="1" font-family="IntelOne Display Regular,IntelOne Display Regular_MSFontService,sans-serif" font-style="normal" font-variant="normal" font-weight="400" font-stretch="normal" font-size="64" text-anchor="start" direction="ltr" writing-mode="lr-tb" unicode-bidi="normal" text-decoration="none" transform="matrix(1 0 0 1 2479.96 1702)">EMF </text><text fill="#000000" fill-opacity="1" font-family="IntelOne Display Regular,IntelOne Display Regular_MSFontService,sans-serif" font-style="normal" font-variant="normal" font-weight="400" font-stretch="normal" font-size="64" text-anchor="start" direction="ltr" writing-mode="lr-tb" unicode-bidi="normal" text-decoration="none" transform="matrix(1 0 0 1 2623.76 1702)">Edge node</text><path d="M2526.5 949.167C2526.5 931.678 2540.68 917.5 2558.17 917.5L3097.83 917.5C3115.32 917.5 3129.5 931.678 3129.5 949.167L3129.5 1075.83C3129.5 1093.32 3115.32 1107.5 3097.83 1107.5L2558.17 1107.5C2540.68 1107.5 2526.5 1093.32 2526.5 1075.83Z" stroke="#8F5DA2" stroke-width="4.58333" stroke-linecap="butt" stroke-linejoin="miter" stroke-miterlimit="8" stroke-opacity="1" fill="#FFFFFF" fill-rule="evenodd" fill-opacity="1"/><text fill="#000000" fill-opacity="1" font-family="IntelOne Display Regular,IntelOne Display Regular_MSFontService,sans-serif" font-style="normal" font-variant="normal" font-weight="400" font-stretch="normal" font-size="50" text-anchor="start" direction="ltr" writing-mode="lr-tb" unicode-bidi="normal" text-decoration="none" transform="matrix(1 0 0 1 2573.02 998)">Management Presence </text><text fill="#000000" fill-opacity="1" font-family="IntelOne Display Regular,IntelOne Display Regular_MSFontService,sans-serif" font-style="normal" font-variant="normal" font-weight="400" font-stretch="normal" font-size="50" text-anchor="start" direction="ltr" writing-mode="lr-tb" unicode-bidi="normal" text-decoration="none" transform="matrix(1 0 0 1 2676.14 1058)">Server (MPS)</text><path d="M3242.5 948.167C3242.5 930.678 3256.68 916.5 3274.17 916.5L3812.83 916.5C3830.32 916.5 3844.5 930.678 3844.5 948.167L3844.5 1074.83C3844.5 1092.32 3830.32 1106.5 3812.83 1106.5L3274.17 1106.5C3256.68 1106.5 3242.5 1092.32 3242.5 1074.83Z" stroke="#8F5DA2" stroke-width="4.58333" stroke-linecap="butt" stroke-linejoin="miter" stroke-miterlimit="8" stroke-opacity="1" fill="#FFFFFF" fill-rule="evenodd" fill-opacity="1"/><text fill="#000000" fill-opacity="1" font-family="IntelOne Display Regular,IntelOne Display Regular_MSFontService,sans-serif" font-style="normal" font-variant="normal" font-weight="400" font-stretch="normal" font-size="50" text-anchor="start" direction="ltr" writing-mode="lr-tb" unicode-bidi="normal" text-decoration="none" transform="matrix(1 0 0 1 3315.57 998)">Remote Provisioning </text><text fill="#000000" fill-opacity="1" font-family="IntelOne Display Regular,IntelOne Display Regular_MSFontService,sans-serif" font-style="normal" font-variant="normal" font-weight="400" font-stretch="normal" font-size="50" text-anchor="start" direction="ltr" writing-mode="lr-tb" unicode-bidi="normal" text-decoration="none" transform="matrix(1 0 0 1 3395.78 1058)">Server (RPS)</text><path d="M2590.5 1452.17C2590.5 1434.68 2604.68 1420.5 2622.17 1420.5L3032.83 1420.5C3050.32 1420.5 3064.5 1434.68 3064.5 1452.17L3064.5 1578.83C3064.5 1596.32 3050.32 1610.5 3032.83 1610.5L2622.17 1610.5C2604.68 1610.5 2590.5 1596.32 2590.5 1578.83Z" stroke="#8F5DA2" stroke-width="4.58333" stroke-linecap="butt" stroke-linejoin="miter" stroke-miterlimit="8" stroke-opacity="1" fill="#FFFFFF" fill-rule="evenodd" fill-opacity="1"/><text fill="#000000" fill-opacity="1" font-family="IntelOne Display Regular,IntelOne Display Regular_MSFontService,sans-serif" font-style="normal" font-variant="normal" font-weight="400" font-stretch="normal" font-size="50" text-anchor="start" direction="ltr" writing-mode="lr-tb" unicode-bidi="normal" text-decoration="none" transform="matrix(1 0 0 1 2800.12 1531)">Intel® AMT</text><g><g><g><path d="M2668.35 1548.65 2735.65 1548.65 2735.65 1481.35 2668.35 1481.35ZM2672.31 1485.31 2731.69 1485.31 2731.69 1544.69 2672.31 1544.69Z" fill="#000000" fill-rule="nonzero" fill-opacity="1"/><path d="M2773.25 1477.4 2773.25 1473.44 2755.44 1473.44 2755.44 1471.46C2755.43 1466 2751 1461.57 2745.54 1461.56L2743.56 1461.56 2743.56 1443.75 2739.6 1443.75 2739.6 1461.56 2727.73 1461.56 2727.73 1443.75 2723.77 1443.75 2723.77 1461.56 2711.9 1461.56 2711.9 1443.75 2707.94 1443.75 2707.94 1461.56 2696.06 1461.56 2696.06 1443.75 2692.1 1443.75 2692.1 1461.56 2680.23 1461.56 2680.23 1443.75 2676.27 1443.75 2676.27 1461.56 2664.4 1461.56 2664.4 1443.75 2660.44 1443.75 2660.44 1461.56 2658.46 1461.56C2653 1461.57 2648.57 1466 2648.56 1471.46L2648.56 1473.44 2630.75 1473.44 2630.75 1477.4 2648.56 1477.4 2648.56 1489.27 2630.75 1489.27 2630.75 1493.23 2648.56 1493.23 2648.56 1505.1 2630.75 1505.1 2630.75 1509.06 2648.56 1509.06 2648.56 1520.94 2630.75 1520.94 2630.75 1524.9 2648.56 1524.9 2648.56 1536.77 2630.75 1536.77 2630.75 1540.73 2648.56 1540.73 2648.56 1552.6 2630.75 1552.6 2630.75 1556.56 2648.56 1556.56 2648.56 1558.54C2648.57 1564 2653 1568.43 2658.46 1568.44L2660.44 1568.44 2660.44 1586.25 2664.4 1586.25 2664.4 1568.44 2676.27 1568.44 2676.27 1586.25 2680.23 1586.25 2680.23 1568.44 2692.1 1568.44 2692.1 1586.25 2696.06 1586.25 2696.06 1568.44 2707.94 1568.44 2707.94 1586.25 2711.9 1586.25 2711.9 1568.44 2723.77 1568.44 2723.77 1586.25 2727.73 1586.25 2727.73 1568.44 2739.6 1568.44 2739.6 1586.25 2743.56 1586.25 2743.56 1568.44 2745.54 1568.44C2751 1568.43 2755.43 1564 2755.44 1558.54L2755.44 1556.56 2773.25 1556.56 2773.25 1552.6 2755.44 1552.6 2755.44 1540.73 2773.25 1540.73 2773.25 1536.77 2755.44 1536.77 2755.44 1524.9 2773.25 1524.9 2773.25 1520.94 2755.44 1520.94 2755.44 1509.06 2773.25 1509.06 2773.25 1505.1 2755.44 1505.1 2755.44 1493.23 2773.25 1493.23 2773.25 1489.27 2755.44 1489.27 2755.44 1477.4ZM2751.48 1558.54C2751.48 1561.82 2748.82 1564.48 2745.54 1564.48L2658.46 1564.48C2655.18 1564.48 2652.52 1561.82 2652.52 1558.54L2652.52 1471.46C2652.52 1468.18 2655.18 1465.52 2658.46 1465.52L2745.54 1465.52C2748.82 1465.52 2751.48 1468.18 2751.48 1471.46Z" fill="#000000" fill-rule="nonzero" fill-opacity="1"/></g></g></g><path d="M3242.5 1452.17C3242.5 1434.68 3256.68 1420.5 3274.17 1420.5L3812.83 1420.5C3830.32 1420.5 3844.5 1434.68 3844.5 1452.17L3844.5 1578.83C3844.5 1596.32 3830.32 1610.5 3812.83 1610.5L3274.17 1610.5C3256.68 1610.5 3242.5 1596.32 3242.5 1578.83Z" stroke="#8F5DA2" stroke-width="4.58333" stroke-linecap="butt" stroke-linejoin="miter" stroke-miterlimit="8" stroke-opacity="1" fill="#FFFFFF" fill-rule="evenodd" fill-opacity="1"/><text fill="#000000" fill-opacity="1" font-family="IntelOne Display Regular,IntelOne Display Regular_MSFontService,sans-serif" font-style="normal" font-variant="normal" font-weight="400" font-stretch="normal" font-size="50" text-anchor="start" direction="ltr" writing-mode="lr-tb" unicode-bidi="normal" text-decoration="none" transform="matrix(1 0 0 1 3315.57 1501)">Remote Provisioning </text><text fill="#000000" fill-opacity="1" font-family="IntelOne Display Regular,IntelOne Display Regular_MSFontService,sans-serif" font-style="normal" font-variant="normal" font-weight="400" font-stretch="normal" font-size="50" text-anchor="start" direction="ltr" writing-mode="lr-tb" unicode-bidi="normal" text-decoration="none" transform="matrix(1 0 0 1 3403.53 1561)">Client (RPC)</text><path d="M3721 1116 3782 1055 3843 1116 3812.5 1116 3812.5 1382 3843 1382 3782 1443 3721 1382 3751.5 1382 3751.5 1116Z" stroke="#0068B5" stroke-width="2.29167" stroke-linecap="butt" stroke-linejoin="miter" stroke-miterlimit="8" stroke-opacity="1" fill="#C2CDE3" fill-rule="evenodd" fill-opacity="1"/><path d="M2959 1124.5 3019.5 1064 3080 1124.5 3049.75 1124.5 3049.75 1391.5 3080 1391.5 3019.5 1452 2959 1391.5 2989.25 1391.5 2989.25 1124.5Z" stroke="#0068B5" stroke-width="2.29167" stroke-linecap="butt" stroke-linejoin="miter" stroke-miterlimit="8" stroke-opacity="1" fill="#C2CDE3" fill-rule="evenodd" fill-opacity="1"/><path d="M3242.5 529.501C3242.5 515.141 3254.14 503.5 3268.5 503.5L3817.5 503.5C3831.86 503.5 3843.5 515.141 3843.5 529.501L3843.5 633.5C3843.5 647.859 3831.86 659.5 3817.5 659.5L3268.5 659.5C3254.14 659.5 3242.5 647.859 3242.5 633.5Z" stroke="#0068B5" stroke-width="4.58333" stroke-linecap="butt" stroke-linejoin="miter" stroke-miterlimit="8" stroke-opacity="1" fill="#FFFFFF" fill-rule="evenodd" fill-opacity="1"/><text fill="#000000" fill-opacity="1" font-family="IntelOne Display Regular,IntelOne Display Regular_MSFontService,sans-serif" font-style="normal" font-variant="normal" font-weight="400" font-stretch="normal" font-size="55" text-anchor="start" direction="ltr" writing-mode="lr-tb" unicode-bidi="normal" text-decoration="none" transform="matrix(1 0 0 1 3395.29 566)">Out</text><text fill="#000000" fill-opacity="1" font-family="IntelOne Display Regular,IntelOne Display Regular_MSFontService,sans-serif" font-style="normal" font-variant="normal" font-weight="400" font-stretch="normal" font-size="55" text-anchor="start" direction="ltr" writing-mode="lr-tb" unicode-bidi="normal" text-decoration="none" transform="matrix(1 0 0 1 3485.24 566)">-</text><text fill="#000000" fill-opacity="1" font-family="IntelOne Display Regular,IntelOne Display Regular_MSFontService,sans-serif" font-style="normal" font-variant="normal" font-weight="400" font-stretch="normal" font-size="55" text-anchor="start" direction="ltr" writing-mode="lr-tb" unicode-bidi="normal" text-decoration="none" transform="matrix(1 0 0 1 3502.43 566)">of</text><text fill="#000000" fill-opacity="1" font-family="IntelOne Display Regular,IntelOne Display Regular_MSFontService,sans-serif" font-style="normal" font-variant="normal" font-weight="400" font-stretch="normal" font-size="55" text-anchor="start" direction="ltr" writing-mode="lr-tb" unicode-bidi="normal" text-decoration="none" transform="matrix(1 0 0 1 3549.41 566)">-</text><text fill="#000000" fill-opacity="1" font-family="IntelOne Display Regular,IntelOne Display Regular_MSFontService,sans-serif" font-style="normal" font-variant="normal" font-weight="400" font-stretch="normal" font-size="55" text-anchor="start" direction="ltr" writing-mode="lr-tb" unicode-bidi="normal" text-decoration="none" transform="matrix(1 0 0 1 3566.59 566)">band </text><text fill="#000000" fill-opacity="1" font-family="IntelOne Display Regular,IntelOne Display Regular_MSFontService,sans-serif" font-style="normal" font-variant="normal" font-weight="400" font-stretch="normal" font-size="55" text-anchor="start" direction="ltr" writing-mode="lr-tb" unicode-bidi="normal" text-decoration="none" transform="matrix(1 0 0 1 3384.41 632)">management</text><path d="M3721 691 3782 630 3843 691 3812.5 691 3812.5 809 3843 809 3782 870 3721 809 3751.5 809 3751.5 691Z" stroke="#0068B5" stroke-width="2.29167" stroke-linecap="butt" stroke-linejoin="miter" stroke-miterlimit="8" stroke-opacity="1" fill="#C2CDE3" fill-rule="evenodd" fill-opacity="1"/></g></g></svg>